<?xml version="1.0" encoding="UTF-8" standalone="no"?>
<!-- Created with Inkscape (http://www.inkscape.org/) -->

<svg
   xmlns:dc="http://purl.org/dc/elements/1.1/"
   xmlns:cc="http://creativecommons.org/ns#"
   xmlns:rdf="http://www.w3.org/1999/02/22-rdf-syntax-ns#"
   xmlns:svg="http://www.w3.org/2000/svg"
   xmlns="http://www.w3.org/2000/svg"
   xmlns:sodipodi="http://sodipodi.sourceforge.net/DTD/sodipodi-0.dtd"
   xmlns:inkscape="http://www.inkscape.org/namespaces/inkscape"
   id="svg2"
   version="1.1"
   inkscape:version="0.91 r13725"
   xml:space="preserve"
   width="633.73749"
   height="525.75"
   viewBox="0 0 633.73749 525.75"
   sodipodi:docname="BestFit_Background.svg"><metadata
     id="metadata8"><rdf:RDF><cc:Work
         rdf:about=""><dc:format>image/svg+xml</dc:format><dc:type
           rdf:resource="http://purl.org/dc/dcmitype/StillImage" /><dc:title></dc:title></cc:Work></rdf:RDF></metadata><defs
     id="defs6"><clipPath
       clipPathUnits="userSpaceOnUse"
       id="clipPath70"><path
         d="m 0,-141.7339 455.15453,0 0,662.76324 -455.15453,0"
         id="path72"
         inkscape:connector-curvature="0" /></clipPath><clipPath
       clipPathUnits="userSpaceOnUse"
       id="clipPath86"><path
         d="m -141.72565,0 0,379.29544 738.60582,0 0,-379.29544"
         id="path88"
         inkscape:connector-curvature="0" /></clipPath><clipPath
       clipPathUnits="userSpaceOnUse"
       id="clipPath102"><path
         d="m 0,-141.7339 455.15453,0 0,662.76324 -455.15453,0"
         id="path104"
         inkscape:connector-curvature="0" /></clipPath><clipPath
       clipPathUnits="userSpaceOnUse"
       id="clipPath118"><path
         d="m -141.72565,0 0,379.29544 738.60582,0 0,-379.29544"
         id="path120"
         inkscape:connector-curvature="0" /></clipPath><clipPath
       clipPathUnits="userSpaceOnUse"
       id="clipPath548"><path
         d="m 0,0 455.15453,0 0,379.29544 L 0,379.29544 0,0 Z"
         id="path550"
         inkscape:connector-curvature="0" /></clipPath></defs><sodipodi:namedview
     pagecolor="#ffffff"
     bordercolor="#666666"
     borderopacity="1"
     objecttolerance="10"
     gridtolerance="10"
     guidetolerance="10"
     inkscape:pageopacity="0"
     inkscape:pageshadow="2"
     inkscape:window-width="1382"
     inkscape:window-height="731"
     id="namedview4"
     showgrid="false"
     inkscape:zoom="0.44888255"
     inkscape:cx="316.86874"
     inkscape:cy="262.875"
     inkscape:window-x="0"
     inkscape:window-y="0"
     inkscape:window-maximized="0"
     inkscape:current-layer="g10" /><g
     id="g10"
     inkscape:groupmode="layer"
     inkscape:label="BestFit_Background"
     transform="matrix(1.25,0,0,-1.25,0,525.75)"><g
       id="g12"
       transform="translate(72,348.6)"><g
         id="g14"
         transform="translate(-36.5,-320.94)"><g
           id="g16"><g
             id="g18"><g
               id="g20" /><g
               id="g22" /><g
               id="g24"><g
                 id="g26"
                 transform="scale(-1,-1)"><g
                   id="g28" /><g
                   id="g30"
                   transform="matrix(-1,0,0,-1,-36.5,-320.94)"><g
                     id="g32" /><g
                     id="g34" /><g
                     id="g36"
                     transform="translate(-36.5,-320.94)" /></g></g></g><g
               id="g38" /><g
               id="g40" /><g
               id="g42" /><g
               id="g44" /><g
               id="g46"><g
                 id="g48"
                 transform="scale(-1,-1)"><g
                   id="g50" /><g
                   id="g52"
                   transform="matrix(-1,0,0,-1,-36.5,-320.94)"><g
                     id="g54" /><g
                     id="g56"
                     transform="translate(-31.02,-25.67)"><g
                       id="g58"
                       transform="translate(-5.48,-295.27)"><g
                         id="g60"><g
                           id="g62"><g
                             id="g64"><g
                               id="g66"><g
                                 id="g68"
                                 clip-path="url(#clipPath70)"><g
                                   id="g74"><path
                                   d="m 18.96477,0 0,379.29544 M 56.8943,0 l 0,379.29544 M 94.82385,0 l 0,379.29544 M 132.7534,0 l 0,379.29544 M 170.68294,0 l 0,379.29544 M 208.61249,0 l 0,379.29544 M 246.54202,0 l 0,379.29544 M 284.47157,0 l 0,379.29544 M 322.40112,0 l 0,379.29544 M 360.33066,0 l 0,379.29544 M 398.26021,0 l 0,379.29544 M 436.18974,0 l 0,379.29544"
                                   style="fill:none;stroke:#bfbfbf;stroke-width:0.3985;stroke-linecap:butt;stroke-linejoin:miter;stroke-miterlimit:10;stroke-dasharray:none;stroke-opacity:1"
                                   id="path76"
                                   inkscape:connector-curvature="0" /></g><g
                                   id="g78"><path
                                   d="m 37.92953,0 0,379.29544 M 75.85909,0 l 0,379.29544 M 113.78862,0 l 0,379.29544 M 151.71817,0 l 0,379.29544 M 189.64772,0 l 0,379.29544 M 227.57726,0 l 0,379.29544 M 265.5068,0 l 0,379.29544 M 303.43634,0 l 0,379.29544 M 341.36589,0 l 0,379.29544 M 379.29544,0 l 0,379.29544 M 417.22498,0 l 0,379.29544 M 455.15453,0 l 0,379.29544"
                                   style="fill:none;stroke:#bfbfbf;stroke-width:1.19553006;stroke-linecap:butt;stroke-linejoin:miter;stroke-miterlimit:10;stroke-dasharray:none;stroke-opacity:1"
                                   id="path80"
                                   inkscape:connector-curvature="0" /></g></g></g><g
                               id="g82"><g
                                 id="g84"
                                 clip-path="url(#clipPath86)"><g
                                   id="g90"><path
                                   d="m 0,23.70596 455.15453,0 M 0,71.11789 l 455.15453,0 M 0,118.52982 l 455.15453,0 M 0,165.94174 l 455.15453,0 M 0,213.35368 l 455.15453,0 M 0,260.76561 l 455.15453,0 M 0,308.17754 l 455.15453,0 M 0,355.58946 l 455.15453,0"
                                   style="fill:none;stroke:#bfbfbf;stroke-width:0.3985;stroke-linecap:butt;stroke-linejoin:miter;stroke-miterlimit:10;stroke-dasharray:none;stroke-opacity:1"
                                   id="path92"
                                   inkscape:connector-curvature="0" /></g><g
                                   id="g94"><path
                                   d="m 0,47.41193 455.15453,0 M 0,94.82385 l 455.15453,0 M 0,142.23578 l 455.15453,0 M 0,189.64772 l 455.15453,0 M 0,237.05965 l 455.15453,0 M 0,284.47157 l 455.15453,0 M 0,331.8835 l 455.15453,0 M 0,379.29544 l 455.15453,0"
                                   style="fill:none;stroke:#bfbfbf;stroke-width:1.19553006;stroke-linecap:butt;stroke-linejoin:miter;stroke-miterlimit:10;stroke-dasharray:none;stroke-opacity:1"
                                   id="path96"
                                   inkscape:connector-curvature="0" /></g></g></g><g
                               id="g98"><g
                                 id="g100"
                                 clip-path="url(#clipPath102)"><g
                                   id="g106"><path
                                   d="m 18.96477,-1.41739 0,2.83479 m 37.92953,-2.83479 0,2.83479 m 37.92955,-2.83479 0,2.83479 m 37.92955,-2.83479 0,2.83479 m 37.92954,-2.83479 0,2.83479 m 37.92955,-2.83479 0,2.83479 m 37.92953,-2.83479 0,2.83479 m 37.92955,-2.83479 0,2.83479 m 37.92955,-2.83479 0,2.83479 m 37.92954,-2.83479 0,2.83479 m 37.92955,-2.83479 0,2.83479 m 37.92953,-2.83479 0,2.83479"
                                   style="fill:none;stroke:#808080;stroke-width:0.19925;stroke-linecap:butt;stroke-linejoin:miter;stroke-miterlimit:10;stroke-dasharray:none;stroke-opacity:1"
                                   id="path108"
                                   inkscape:connector-curvature="0" /></g><g
                                   id="g110"><path
                                   d="m 37.92953,-2.1259 0,4.2518 m 37.92956,-4.2518 0,4.2518 m 37.92953,-4.2518 0,4.2518 m 37.92955,-4.2518 0,4.2518 m 37.92955,-4.2518 0,4.2518 m 37.92954,-4.2518 0,4.2518 m 37.92954,-4.2518 0,4.2518 m 37.92954,-4.2518 0,4.2518 m 37.92955,-4.2518 0,4.2518 m 37.92955,-4.2518 0,4.2518 m 37.92954,-4.2518 0,4.2518 m 37.92955,-4.2518 0,4.2518"
                                   style="fill:none;stroke:#808080;stroke-width:0.19925;stroke-linecap:butt;stroke-linejoin:miter;stroke-miterlimit:10;stroke-dasharray:none;stroke-opacity:1"
                                   id="path112"
                                   inkscape:connector-curvature="0" /></g></g></g><g
                               id="g114"><g
                                 id="g116"
                                 clip-path="url(#clipPath118)"><g
                                   id="g122"><path
                                   d="m -1.4173,23.70596 2.8346,0 m -2.8346,47.41193 2.8346,0 m -2.8346,47.41193 2.8346,0 m -2.8346,47.41192 2.8346,0 m -2.8346,47.41194 2.8346,0 m -2.8346,47.41193 2.8346,0 m -2.8346,47.41193 2.8346,0 m -2.8346,47.41192 2.8346,0"
                                   style="fill:none;stroke:#808080;stroke-width:0.19925;stroke-linecap:butt;stroke-linejoin:miter;stroke-miterlimit:10;stroke-dasharray:none;stroke-opacity:1"
                                   id="path124"
                                   inkscape:connector-curvature="0" /></g><g
                                   id="g126"><path
                                   d="m -2.12576,47.41193 4.25152,0 m -4.25152,47.41192 4.25152,0 m -4.25152,47.41193 4.25152,0 m -4.25152,47.41194 4.25152,0 m -4.25152,47.41193 4.25152,0 m -4.25152,47.41192 4.25152,0 m -4.25152,47.41193 4.25152,0 m -4.25152,47.41194 4.25152,0"
                                   style="fill:none;stroke:#808080;stroke-width:0.19925;stroke-linecap:butt;stroke-linejoin:miter;stroke-miterlimit:10;stroke-dasharray:none;stroke-opacity:1"
                                   id="path128"
                                   inkscape:connector-curvature="0" /></g></g></g><path
                               d="M 0,0 453.162,0"
                               style="fill:none;stroke:#000000;stroke-width:0.3985;stroke-linecap:butt;stroke-linejoin:miter;stroke-miterlimit:10;stroke-dasharray:none;stroke-opacity:1"
                               id="path130"
                               inkscape:connector-curvature="0" /><g
                               id="g132"
                               transform="translate(453.162,0)"><g
                                 id="g134"><path
                                   d="M 1.99252,0 -1.19551,1.59401 0,0 -1.19551,-1.59401"
                                   style="fill:#000000;fill-opacity:1;fill-rule:nonzero;stroke:none"
                                   id="path136"
                                   inkscape:connector-curvature="0" /></g></g><path
                               d="M 0,0 0,377.30292"
                               style="fill:none;stroke:#000000;stroke-width:0.3985;stroke-linecap:butt;stroke-linejoin:miter;stroke-miterlimit:10;stroke-dasharray:none;stroke-opacity:1"
                               id="path138"
                               inkscape:connector-curvature="0" /><g
                               id="g140"
                               transform="matrix(0,1,-1,0,0,377.30292)"><g
                                 id="g142"><path
                                   d="M 1.99252,0 -1.19551,1.59401 0,0 -1.19551,-1.59401"
                                   style="fill:#000000;fill-opacity:1;fill-rule:nonzero;stroke:none"
                                   id="path144"
                                   inkscape:connector-curvature="0" /></g></g><g
                               id="g146"><g
                                 id="g148"><g
                                   id="g150"
                                   transform="scale(-1,-1)"><g
                                   id="g152" /><g
                                   id="g154"
                                   transform="matrix(-1,0,0,-1,-5.48,-295.27)"><g
                                   id="g156" /><g
                                   id="g158"
                                   transform="translate(33.63,-19.7)"><text
                                   transform="matrix(1,0,0,-1,-5.48,-295.27)"
                                   style="font-variant:normal;font-weight:normal;font-size:17.21500015px;font-family:'Times New Roman';-inkscape-font-specification:TimesNewRomanPSMT;writing-mode:lr-tb;fill:#000000;fill-opacity:1;fill-rule:nonzero;stroke:none"
                                   id="text160"><tspan
                                   x="0"
                                   y="0"
                                   id="tspan162">1</tspan></text>
</g><g
                                   id="g164"
                                   transform="translate(-5.48,-295.27)" /></g></g></g></g><g
                               id="g166"><g
                                 id="g168"><g
                                   id="g170"
                                   transform="scale(-1,-1)"><g
                                   id="g172" /><g
                                   id="g174"
                                   transform="matrix(-1,0,0,-1,-5.48,-295.27)"><g
                                   id="g176" /><g
                                   id="g178"
                                   transform="translate(71.56,-19.7)"><text
                                   transform="matrix(1,0,0,-1,-5.48,-295.27)"
                                   style="font-variant:normal;font-weight:normal;font-size:17.21500015px;font-family:'Times New Roman';-inkscape-font-specification:TimesNewRomanPSMT;writing-mode:lr-tb;fill:#000000;fill-opacity:1;fill-rule:nonzero;stroke:none"
                                   id="text180"><tspan
                                   x="0"
                                   y="0"
                                   id="tspan182">2</tspan></text>
</g><g
                                   id="g184"
                                   transform="translate(-5.48,-295.27)" /></g></g></g></g><g
                               id="g186"><g
                                 id="g188"><g
                                   id="g190"
                                   transform="scale(-1,-1)"><g
                                   id="g192" /><g
                                   id="g194"
                                   transform="matrix(-1,0,0,-1,-5.48,-295.27)"><g
                                   id="g196" /><g
                                   id="g198"
                                   transform="translate(109.48,-19.7)"><text
                                   transform="matrix(1,0,0,-1,-5.48,-295.27)"
                                   style="font-variant:normal;font-weight:normal;font-size:17.21500015px;font-family:'Times New Roman';-inkscape-font-specification:TimesNewRomanPSMT;writing-mode:lr-tb;fill:#000000;fill-opacity:1;fill-rule:nonzero;stroke:none"
                                   id="text200"><tspan
                                   x="0"
                                   y="0"
                                   id="tspan202">3</tspan></text>
</g><g
                                   id="g204"
                                   transform="translate(-5.48,-295.27)" /></g></g></g></g><g
                               id="g206"><g
                                 id="g208"><g
                                   id="g210"
                                   transform="scale(-1,-1)"><g
                                   id="g212" /><g
                                   id="g214"
                                   transform="matrix(-1,0,0,-1,-5.48,-295.27)"><g
                                   id="g216" /><g
                                   id="g218"
                                   transform="translate(147.41,-19.7)"><text
                                   transform="matrix(1,0,0,-1,-5.48,-295.27)"
                                   style="font-variant:normal;font-weight:normal;font-size:17.21500015px;font-family:'Times New Roman';-inkscape-font-specification:TimesNewRomanPSMT;writing-mode:lr-tb;fill:#000000;fill-opacity:1;fill-rule:nonzero;stroke:none"
                                   id="text220"><tspan
                                   x="0"
                                   y="0"
                                   id="tspan222">4</tspan></text>
</g><g
                                   id="g224"
                                   transform="translate(-5.48,-295.27)" /></g></g></g></g><g
                               id="g226"><g
                                 id="g228"><g
                                   id="g230"
                                   transform="scale(-1,-1)"><g
                                   id="g232" /><g
                                   id="g234"
                                   transform="matrix(-1,0,0,-1,-5.48,-295.27)"><g
                                   id="g236" /><g
                                   id="g238"
                                   transform="translate(185.34,-19.46)"><text
                                   transform="matrix(1,0,0,-1,-5.48,-295.27)"
                                   style="font-variant:normal;font-weight:normal;font-size:17.21500015px;font-family:'Times New Roman';-inkscape-font-specification:TimesNewRomanPSMT;writing-mode:lr-tb;fill:#000000;fill-opacity:1;fill-rule:nonzero;stroke:none"
                                   id="text240"><tspan
                                   x="0"
                                   y="0"
                                   id="tspan242">5</tspan></text>
</g><g
                                   id="g244"
                                   transform="translate(-5.48,-295.27)" /></g></g></g></g><g
                               id="g246"><g
                                 id="g248"><g
                                   id="g250"
                                   transform="scale(-1,-1)"><g
                                   id="g252" /><g
                                   id="g254"
                                   transform="matrix(-1,0,0,-1,-5.48,-295.27)"><g
                                   id="g256" /><g
                                   id="g258"
                                   transform="translate(223.27,-19.7)"><text
                                   transform="matrix(1,0,0,-1,-5.48,-295.27)"
                                   style="font-variant:normal;font-weight:normal;font-size:17.21500015px;font-family:'Times New Roman';-inkscape-font-specification:TimesNewRomanPSMT;writing-mode:lr-tb;fill:#000000;fill-opacity:1;fill-rule:nonzero;stroke:none"
                                   id="text260"><tspan
                                   x="0"
                                   y="0"
                                   id="tspan262">6</tspan></text>
</g><g
                                   id="g264"
                                   transform="translate(-5.48,-295.27)" /></g></g></g></g><g
                               id="g266"><g
                                 id="g268"><g
                                   id="g270"
                                   transform="scale(-1,-1)"><g
                                   id="g272" /><g
                                   id="g274"
                                   transform="matrix(-1,0,0,-1,-5.48,-295.27)"><g
                                   id="g276" /><g
                                   id="g278"
                                   transform="translate(261.2,-19.46)"><text
                                   transform="matrix(1,0,0,-1,-5.48,-295.27)"
                                   style="font-variant:normal;font-weight:normal;font-size:17.21500015px;font-family:'Times New Roman';-inkscape-font-specification:TimesNewRomanPSMT;writing-mode:lr-tb;fill:#000000;fill-opacity:1;fill-rule:nonzero;stroke:none"
                                   id="text280"><tspan
                                   x="0"
                                   y="0"
                                   id="tspan282">7</tspan></text>
</g><g
                                   id="g284"
                                   transform="translate(-5.48,-295.27)" /></g></g></g></g><g
                               id="g286"><g
                                 id="g288"><g
                                   id="g290"
                                   transform="scale(-1,-1)"><g
                                   id="g292" /><g
                                   id="g294"
                                   transform="matrix(-1,0,0,-1,-5.48,-295.27)"><g
                                   id="g296" /><g
                                   id="g298"
                                   transform="translate(299.13,-19.7)"><text
                                   transform="matrix(1,0,0,-1,-5.48,-295.27)"
                                   style="font-variant:normal;font-weight:normal;font-size:17.21500015px;font-family:'Times New Roman';-inkscape-font-specification:TimesNewRomanPSMT;writing-mode:lr-tb;fill:#000000;fill-opacity:1;fill-rule:nonzero;stroke:none"
                                   id="text300"><tspan
                                   x="0"
                                   y="0"
                                   id="tspan302">8</tspan></text>
</g><g
                                   id="g304"
                                   transform="translate(-5.48,-295.27)" /></g></g></g></g><g
                               id="g306"><g
                                 id="g308"><g
                                   id="g310"
                                   transform="scale(-1,-1)"><g
                                   id="g312" /><g
                                   id="g314"
                                   transform="matrix(-1,0,0,-1,-5.48,-295.27)"><g
                                   id="g316" /><g
                                   id="g318"
                                   transform="translate(337.06,-19.7)"><text
                                   transform="matrix(1,0,0,-1,-5.48,-295.27)"
                                   style="font-variant:normal;font-weight:normal;font-size:17.21500015px;font-family:'Times New Roman';-inkscape-font-specification:TimesNewRomanPSMT;writing-mode:lr-tb;fill:#000000;fill-opacity:1;fill-rule:nonzero;stroke:none"
                                   id="text320"><tspan
                                   x="0"
                                   y="0"
                                   id="tspan322">9</tspan></text>
</g><g
                                   id="g324"
                                   transform="translate(-5.48,-295.27)" /></g></g></g></g><g
                               id="g326"><g
                                 id="g328"><g
                                   id="g330"
                                   transform="scale(-1,-1)"><g
                                   id="g332" /><g
                                   id="g334"
                                   transform="matrix(-1,0,0,-1,-5.48,-295.27)"><g
                                   id="g336" /><g
                                   id="g338"
                                   transform="translate(370.69,-19.7)"><text
                                   transform="matrix(1,0,0,-1,-5.48,-295.27)"
                                   style="font-variant:normal;font-weight:normal;font-size:17.21500015px;font-family:'Times New Roman';-inkscape-font-specification:TimesNewRomanPSMT;writing-mode:lr-tb;fill:#000000;fill-opacity:1;fill-rule:nonzero;stroke:none"
                                   id="text340"><tspan
                                   x="0 8.6075001"
                                   y="0"
                                   sodipodi:role="line"
                                   id="tspan342">10</tspan></text>
</g><g
                                   id="g344"
                                   transform="translate(-5.48,-295.27)" /></g></g></g></g><g
                               id="g346"><g
                                 id="g348"><g
                                   id="g350"
                                   transform="scale(-1,-1)"><g
                                   id="g352" /><g
                                   id="g354"
                                   transform="matrix(-1,0,0,-1,-5.48,-295.27)"><g
                                   id="g356" /><g
                                   id="g358"
                                   transform="translate(408.62,-19.7)"><text
                                   transform="matrix(1,0,0,-1,-5.48,-295.27)"
                                   style="font-variant:normal;font-weight:normal;font-size:17.21500015px;font-family:'Times New Roman';-inkscape-font-specification:TimesNewRomanPSMT;writing-mode:lr-tb;fill:#000000;fill-opacity:1;fill-rule:nonzero;stroke:none"
                                   id="text360"><tspan
                                   x="0 8.6075001"
                                   y="0"
                                   sodipodi:role="line"
                                   id="tspan362">11</tspan></text>
</g><g
                                   id="g364"
                                   transform="translate(-5.48,-295.27)" /></g></g></g></g><g
                               id="g366"><g
                                 id="g368"><g
                                   id="g370"
                                   transform="scale(-1,-1)"><g
                                   id="g372" /><g
                                   id="g374"
                                   transform="matrix(-1,0,0,-1,-5.48,-295.27)"><g
                                   id="g376" /><g
                                   id="g378"
                                   transform="translate(446.55,-19.7)"><text
                                   transform="matrix(1,0,0,-1,-5.48,-295.27)"
                                   style="font-variant:normal;font-weight:normal;font-size:17.21500015px;font-family:'Times New Roman';-inkscape-font-specification:TimesNewRomanPSMT;writing-mode:lr-tb;fill:#000000;fill-opacity:1;fill-rule:nonzero;stroke:none"
                                   id="text380"><tspan
                                   x="0 8.6075001"
                                   y="0"
                                   sodipodi:role="line"
                                   id="tspan382">12</tspan></text>
</g><g
                                   id="g384"
                                   transform="translate(-5.48,-295.27)" /></g></g></g></g><g
                               id="g386"><g
                                 id="g388"><g
                                   id="g390"
                                   transform="scale(-1,-1)"><g
                                   id="g392" /><g
                                   id="g394"
                                   transform="matrix(-1,0,0,-1,-5.48,-295.27)"><g
                                   id="g396" /><g
                                   id="g398"
                                   transform="translate(-25.28,41.7)"><text
                                   transform="matrix(1,0,0,-1,-5.48,-295.27)"
                                   style="font-variant:normal;font-weight:normal;font-size:17.21500015px;font-family:'Times New Roman';-inkscape-font-specification:TimesNewRomanPSMT;writing-mode:lr-tb;fill:#000000;fill-opacity:1;fill-rule:nonzero;stroke:none"
                                   id="text400"><tspan
                                   x="0 8.6075001"
                                   y="0"
                                   sodipodi:role="line"
                                   id="tspan402">10</tspan></text>
</g><g
                                   id="g404"
                                   transform="translate(-5.48,-295.27)" /></g></g></g></g><g
                               id="g406"><g
                                 id="g408"><g
                                   id="g410"
                                   transform="scale(-1,-1)"><g
                                   id="g412" /><g
                                   id="g414"
                                   transform="matrix(-1,0,0,-1,-5.48,-295.27)"><g
                                   id="g416" /><g
                                   id="g418"
                                   transform="translate(-25.28,89.11)"><text
                                   transform="matrix(1,0,0,-1,-5.48,-295.27)"
                                   style="font-variant:normal;font-weight:normal;font-size:17.21500015px;font-family:'Times New Roman';-inkscape-font-specification:TimesNewRomanPSMT;writing-mode:lr-tb;fill:#000000;fill-opacity:1;fill-rule:nonzero;stroke:none"
                                   id="text420"><tspan
                                   x="0 8.6075001"
                                   y="0"
                                   sodipodi:role="line"
                                   id="tspan422">20</tspan></text>
</g><g
                                   id="g424"
                                   transform="translate(-5.48,-295.27)" /></g></g></g></g><g
                               id="g426"><g
                                 id="g428"><g
                                   id="g430"
                                   transform="scale(-1,-1)"><g
                                   id="g432" /><g
                                   id="g434"
                                   transform="matrix(-1,0,0,-1,-5.48,-295.27)"><g
                                   id="g436" /><g
                                   id="g438"
                                   transform="translate(-25.28,136.52)"><text
                                   transform="matrix(1,0,0,-1,-5.48,-295.27)"
                                   style="font-variant:normal;font-weight:normal;font-size:17.21500015px;font-family:'Times New Roman';-inkscape-font-specification:TimesNewRomanPSMT;writing-mode:lr-tb;fill:#000000;fill-opacity:1;fill-rule:nonzero;stroke:none"
                                   id="text440"><tspan
                                   x="0 8.6075001"
                                   y="0"
                                   sodipodi:role="line"
                                   id="tspan442">30</tspan></text>
</g><g
                                   id="g444"
                                   transform="translate(-5.48,-295.27)" /></g></g></g></g><g
                               id="g446"><g
                                 id="g448"><g
                                   id="g450"
                                   transform="scale(-1,-1)"><g
                                   id="g452" /><g
                                   id="g454"
                                   transform="matrix(-1,0,0,-1,-5.48,-295.27)"><g
                                   id="g456" /><g
                                   id="g458"
                                   transform="translate(-25.28,183.93)"><text
                                   transform="matrix(1,0,0,-1,-5.48,-295.27)"
                                   style="font-variant:normal;font-weight:normal;font-size:17.21500015px;font-family:'Times New Roman';-inkscape-font-specification:TimesNewRomanPSMT;writing-mode:lr-tb;fill:#000000;fill-opacity:1;fill-rule:nonzero;stroke:none"
                                   id="text460"><tspan
                                   x="0 8.6075001"
                                   y="0"
                                   sodipodi:role="line"
                                   id="tspan462">40</tspan></text>
</g><g
                                   id="g464"
                                   transform="translate(-5.48,-295.27)" /></g></g></g></g><g
                               id="g466"><g
                                 id="g468"><g
                                   id="g470"
                                   transform="scale(-1,-1)"><g
                                   id="g472" /><g
                                   id="g474"
                                   transform="matrix(-1,0,0,-1,-5.48,-295.27)"><g
                                   id="g476" /><g
                                   id="g478"
                                   transform="translate(-25.28,231.34)"><text
                                   transform="matrix(1,0,0,-1,-5.48,-295.27)"
                                   style="font-variant:normal;font-weight:normal;font-size:17.21500015px;font-family:'Times New Roman';-inkscape-font-specification:TimesNewRomanPSMT;writing-mode:lr-tb;fill:#000000;fill-opacity:1;fill-rule:nonzero;stroke:none"
                                   id="text480"><tspan
                                   x="0 8.6075001"
                                   y="0"
                                   sodipodi:role="line"
                                   id="tspan482">50</tspan></text>
</g><g
                                   id="g484"
                                   transform="translate(-5.48,-295.27)" /></g></g></g></g><g
                               id="g486"><g
                                 id="g488"><g
                                   id="g490"
                                   transform="scale(-1,-1)"><g
                                   id="g492" /><g
                                   id="g494"
                                   transform="matrix(-1,0,0,-1,-5.48,-295.27)"><g
                                   id="g496" /><g
                                   id="g498"
                                   transform="translate(-25.28,278.76)"><text
                                   transform="matrix(1,0,0,-1,-5.48,-295.27)"
                                   style="font-variant:normal;font-weight:normal;font-size:17.21500015px;font-family:'Times New Roman';-inkscape-font-specification:TimesNewRomanPSMT;writing-mode:lr-tb;fill:#000000;fill-opacity:1;fill-rule:nonzero;stroke:none"
                                   id="text500"><tspan
                                   x="0 8.6075001"
                                   y="0"
                                   sodipodi:role="line"
                                   id="tspan502">60</tspan></text>
</g><g
                                   id="g504"
                                   transform="translate(-5.48,-295.27)" /></g></g></g></g><g
                               id="g506"><g
                                 id="g508"><g
                                   id="g510"
                                   transform="scale(-1,-1)"><g
                                   id="g512" /><g
                                   id="g514"
                                   transform="matrix(-1,0,0,-1,-5.48,-295.27)"><g
                                   id="g516" /><g
                                   id="g518"
                                   transform="translate(-25.28,326.18)"><text
                                   transform="matrix(1,0,0,-1,-5.48,-295.27)"
                                   style="font-variant:normal;font-weight:normal;font-size:17.21500015px;font-family:'Times New Roman';-inkscape-font-specification:TimesNewRomanPSMT;writing-mode:lr-tb;fill:#000000;fill-opacity:1;fill-rule:nonzero;stroke:none"
                                   id="text520"><tspan
                                   x="0 8.6075001"
                                   y="0"
                                   sodipodi:role="line"
                                   id="tspan522">70</tspan></text>
</g><g
                                   id="g524"
                                   transform="translate(-5.48,-295.27)" /></g></g></g></g><g
                               id="g526"><g
                                 id="g528"><g
                                   id="g530"
                                   transform="scale(-1,-1)"><g
                                   id="g532" /><g
                                   id="g534"
                                   transform="matrix(-1,0,0,-1,-5.48,-295.27)"><g
                                   id="g536" /><g
                                   id="g538"
                                   transform="translate(-25.28,373.58)"><text
                                   transform="matrix(1,0,0,-1,-5.48,-295.27)"
                                   style="font-variant:normal;font-weight:normal;font-size:17.21500015px;font-family:'Times New Roman';-inkscape-font-specification:TimesNewRomanPSMT;writing-mode:lr-tb;fill:#000000;fill-opacity:1;fill-rule:nonzero;stroke:none"
                                   id="text540"><tspan
                                   x="0 8.6075001"
                                   y="0"
                                   sodipodi:role="line"
                                   id="tspan542">80</tspan></text>
</g><g
                                   id="g544"
                                   transform="translate(-5.48,-295.27)" /></g></g></g></g><g
                               id="g546"
                               clip-path="url(#clipPath548)" /></g><g
                             id="g552"><path
                               d="m 115.78117,234.6881 c 0,1.10046 -0.89207,1.99255 -1.99255,1.99255 -1.10046,0 -1.99255,-0.89209 -1.99255,-1.99255 0,-1.10048 0.89209,-1.99256 1.99255,-1.99256 1.10048,0 1.99255,0.89208 1.99255,1.99256 z"
                               style="fill:#0000ff;fill-opacity:1;fill-rule:nonzero;stroke:#0000ff;stroke-width:0.3985;stroke-linecap:butt;stroke-linejoin:miter;stroke-miterlimit:10;stroke-dasharray:none;stroke-opacity:1"
                               id="path554"
                               inkscape:connector-curvature="0" /><path
                               d="m 134.74596,227.52036 c 0,1.10047 -0.89209,1.99255 -1.99256,1.99255 -1.10048,0 -1.99255,-0.89208 -1.99255,-1.99255 0,-1.10047 0.89207,-1.99256 1.99255,-1.99256 1.10047,0 1.99256,0.89209 1.99256,1.99256 z"
                               style="fill:#0000ff;fill-opacity:1;fill-rule:nonzero;stroke:#0000ff;stroke-width:0.3985;stroke-linecap:butt;stroke-linejoin:miter;stroke-miterlimit:10;stroke-dasharray:none;stroke-opacity:1"
                               id="path556"
                               inkscape:connector-curvature="0" /><path
                               d="m 153.71072,221.22736 c 0,1.10048 -0.89209,1.99255 -1.99255,1.99255 -1.10048,0 -1.99255,-0.89207 -1.99255,-1.99255 0,-1.10047 0.89207,-1.99256 1.99255,-1.99256 1.10046,0 1.99255,0.89209 1.99255,1.99256 z"
                               style="fill:#0000ff;fill-opacity:1;fill-rule:nonzero;stroke:#0000ff;stroke-width:0.3985;stroke-linecap:butt;stroke-linejoin:miter;stroke-miterlimit:10;stroke-dasharray:none;stroke-opacity:1"
                               id="path558"
                               inkscape:connector-curvature="0" /><path
                               d="m 172.67549,196.85052 c 0,1.10048 -0.89207,1.99256 -1.99255,1.99256 -1.10047,0 -1.99256,-0.89208 -1.99256,-1.99256 0,-1.10046 0.89209,-1.99255 1.99256,-1.99255 1.10048,0 1.99255,0.89209 1.99255,1.99255 z"
                               style="fill:#0000ff;fill-opacity:1;fill-rule:nonzero;stroke:#0000ff;stroke-width:0.3985;stroke-linecap:butt;stroke-linejoin:miter;stroke-miterlimit:10;stroke-dasharray:none;stroke-opacity:1"
                               id="path560"
                               inkscape:connector-curvature="0" /><path
                               d="m 191.64027,201.42578 c 0,1.10047 -0.89209,1.99255 -1.99255,1.99255 -1.10048,0 -1.99255,-0.89208 -1.99255,-1.99255 0,-1.10048 0.89207,-1.99255 1.99255,-1.99255 1.10046,0 1.99255,0.89207 1.99255,1.99255 z"
                               style="fill:#0000ff;fill-opacity:1;fill-rule:nonzero;stroke:#0000ff;stroke-width:0.3985;stroke-linecap:butt;stroke-linejoin:miter;stroke-miterlimit:10;stroke-dasharray:none;stroke-opacity:1"
                               id="path562"
                               inkscape:connector-curvature="0" /><path
                               d="m 210.60504,174.6736 c 0,1.10046 -0.89209,1.99255 -1.99255,1.99255 -1.10048,0 -1.99256,-0.89209 -1.99256,-1.99255 0,-1.10048 0.89208,-1.99255 1.99256,-1.99255 1.10046,0 1.99255,0.89207 1.99255,1.99255 z"
                               style="fill:#0000ff;fill-opacity:1;fill-rule:nonzero;stroke:#0000ff;stroke-width:0.3985;stroke-linecap:butt;stroke-linejoin:miter;stroke-miterlimit:10;stroke-dasharray:none;stroke-opacity:1"
                               id="path564"
                               inkscape:connector-curvature="0" /><path
                               d="m 229.56981,146.05054 c 0,1.10046 -0.89208,1.99255 -1.99255,1.99255 -1.10047,0 -1.99256,-0.89209 -1.99256,-1.99255 0,-1.10047 0.89209,-1.99256 1.99256,-1.99256 1.10047,0 1.99255,0.89209 1.99255,1.99256 z"
                               style="fill:#0000ff;fill-opacity:1;fill-rule:nonzero;stroke:#0000ff;stroke-width:0.3985;stroke-linecap:butt;stroke-linejoin:miter;stroke-miterlimit:10;stroke-dasharray:none;stroke-opacity:1"
                               id="path566"
                               inkscape:connector-curvature="0" /><path
                               d="m 248.53458,150.13176 c 0,1.10048 -0.89208,1.99255 -1.99256,1.99255 -1.10046,0 -1.99255,-0.89207 -1.99255,-1.99255 0,-1.10046 0.89209,-1.99256 1.99255,-1.99256 1.10048,0 1.99256,0.8921 1.99256,1.99256 z"
                               style="fill:#0000ff;fill-opacity:1;fill-rule:nonzero;stroke:#0000ff;stroke-width:0.3985;stroke-linecap:butt;stroke-linejoin:miter;stroke-miterlimit:10;stroke-dasharray:none;stroke-opacity:1"
                               id="path568"
                               inkscape:connector-curvature="0" /><path
                               d="m 267.49936,141.30554 c 0,1.10048 -0.89209,1.99256 -1.99256,1.99256 -1.10047,0 -1.99255,-0.89208 -1.99255,-1.99256 0,-1.10046 0.89208,-1.99255 1.99255,-1.99255 1.10047,0 1.99256,0.89209 1.99256,1.99255 z"
                               style="fill:#0000ff;fill-opacity:1;fill-rule:nonzero;stroke:#0000ff;stroke-width:0.3985;stroke-linecap:butt;stroke-linejoin:miter;stroke-miterlimit:10;stroke-dasharray:none;stroke-opacity:1"
                               id="path570"
                               inkscape:connector-curvature="0" /><path
                               d="m 286.46413,115.16261 c 0,1.10047 -0.89208,1.99256 -1.99256,1.99256 -1.10046,0 -1.99255,-0.89209 -1.99255,-1.99256 0,-1.10048 0.89209,-1.99255 1.99255,-1.99255 1.10048,0 1.99256,0.89207 1.99256,1.99255 z"
                               style="fill:#0000ff;fill-opacity:1;fill-rule:nonzero;stroke:#0000ff;stroke-width:0.3985;stroke-linecap:butt;stroke-linejoin:miter;stroke-miterlimit:10;stroke-dasharray:none;stroke-opacity:1"
                               id="path572"
                               inkscape:connector-curvature="0" /><path
                               d="m 305.4289,109.61115 c 0,1.10047 -0.89208,1.99255 -1.99256,1.99255 -1.10046,0 -1.99255,-0.89208 -1.99255,-1.99255 0,-1.10047 0.89209,-1.99256 1.99255,-1.99256 1.10048,0 1.99256,0.89209 1.99256,1.99256 z"
                               style="fill:#0000ff;fill-opacity:1;fill-rule:nonzero;stroke:#0000ff;stroke-width:0.3985;stroke-linecap:butt;stroke-linejoin:miter;stroke-miterlimit:10;stroke-dasharray:none;stroke-opacity:1"
                               id="path574"
                               inkscape:connector-curvature="0" /><path
                               d="m 324.39368,84.57433 c 0,1.10047 -0.89209,1.99255 -1.99256,1.99255 -1.10048,0 -1.99255,-0.89208 -1.99255,-1.99255 0,-1.10047 0.89207,-1.99256 1.99255,-1.99256 1.10047,0 1.99256,0.89209 1.99256,1.99256 z"
                               style="fill:#0000ff;fill-opacity:1;fill-rule:nonzero;stroke:#0000ff;stroke-width:0.3985;stroke-linecap:butt;stroke-linejoin:miter;stroke-miterlimit:10;stroke-dasharray:none;stroke-opacity:1"
                               id="path576"
                               inkscape:connector-curvature="0" /><path
                               d="m 343.35844,74.43292 c 0,1.10047 -0.89209,1.99256 -1.99255,1.99256 -1.10048,0 -1.99255,-0.89209 -1.99255,-1.99256 0,-1.10046 0.89207,-1.99255 1.99255,-1.99255 1.10046,0 1.99255,0.89209 1.99255,1.99255 z"
                               style="fill:#0000ff;fill-opacity:1;fill-rule:nonzero;stroke:#0000ff;stroke-width:0.3985;stroke-linecap:butt;stroke-linejoin:miter;stroke-miterlimit:10;stroke-dasharray:none;stroke-opacity:1"
                               id="path578"
                               inkscape:connector-curvature="0" /></g><g
                             id="g580"><g
                               id="g582"><g
                                 id="g584"
                                 transform="scale(-1,-1)"><g
                                   id="g586" /><g
                                   id="g588"
                                   transform="matrix(-1,0,0,-1,-5.48,-295.27)"><g
                                   id="g590" /><g
                                   id="g592"
                                   transform="translate(416.57,10.04)"><text
                                   transform="matrix(1,0,0,-1,-5.48,-295.27)"
                                   style="font-style:italic;font-variant:normal;font-size:20.66300011px;font-family:'Times New Roman';-inkscape-font-specification:TimesNewRomanPS-ItalicMT;writing-mode:lr-tb;fill:#000000;fill-opacity:1;fill-rule:nonzero;stroke:none"
                                   id="text594"><tspan
                                   x="0"
                                   y="0"
                                   id="tspan596">t</tspan></text>
<text
                                   transform="matrix(1,0,0,-1,5.42,-295.27)"
                                   style="font-variant:normal;font-weight:normal;font-size:20.66300011px;font-family:'Times New Roman';-inkscape-font-specification:TimesNewRomanPSMT;writing-mode:lr-tb;fill:#000000;fill-opacity:1;fill-rule:nonzero;stroke:none"
                                   id="text598"><tspan
                                   x="0 6.8807788 14.918686"
                                   y="0"
                                   sodipodi:role="line"
                                   id="tspan600">[s]</tspan></text>
</g><g
                                   id="g602"
                                   transform="translate(-5.48,-295.27)" /></g></g></g></g><g
                             id="g604"><g
                               id="g606"><g
                                 id="g608"
                                 transform="scale(-1,-1)"><g
                                   id="g610" /><g
                                   id="g612"
                                   transform="matrix(-1,0,0,-1,-5.48,-295.27)"><g
                                   id="g614" /><g
                                   id="g616"
                                   transform="translate(5.94,359.09)"><text
                                   transform="matrix(1,0,0,-1,-5.48,-295.27)"
                                   style="font-style:italic;font-variant:normal;font-size:20.66300011px;font-family:'Times New Roman';-inkscape-font-specification:TimesNewRomanPS-ItalicMT;writing-mode:lr-tb;fill:#000000;fill-opacity:1;fill-rule:nonzero;stroke:none"
                                   id="text618"><tspan
                                   x="0"
                                   y="0"
                                   id="tspan620">v</tspan></text>
<text
                                   transform="matrix(1,0,0,-1,8.85,-295.27)"
                                   style="font-variant:normal;font-weight:normal;font-size:20.66300011px;font-family:'Times New Roman';-inkscape-font-specification:TimesNewRomanPSMT;writing-mode:lr-tb;fill:#000000;fill-opacity:1;fill-rule:nonzero;stroke:none"
                                   id="text622"><tspan
                                   x="0 6.8807788 22.956593 28.700907 36.738815"
                                   y="0"
                                   sodipodi:role="line"
                                   id="tspan624">[m/s]</tspan></text>
</g><g
                                   id="g626"
                                   transform="translate(-5.48,-295.27)" /></g></g></g></g></g></g></g></g><g
                     id="g628"
                     transform="translate(-36.5,-320.94)" /></g></g></g><g
               id="g630" /><g
               id="g632" /></g></g></g></g></g></svg>