<?xml version="1.0" encoding="UTF-8" standalone="no"?>
<!-- Created with Inkscape (http://www.inkscape.org/) -->

<svg
   xmlns:dc="http://purl.org/dc/elements/1.1/"
   xmlns:cc="http://creativecommons.org/ns#"
   xmlns:rdf="http://www.w3.org/1999/02/22-rdf-syntax-ns#"
   xmlns:svg="http://www.w3.org/2000/svg"
   xmlns="http://www.w3.org/2000/svg"
   xmlns:sodipodi="http://sodipodi.sourceforge.net/DTD/sodipodi-0.dtd"
   xmlns:inkscape="http://www.inkscape.org/namespaces/inkscape"
   id="svg2"
   version="1.1"
   inkscape:version="0.91 r13725"
   xml:space="preserve"
   width="625.26251"
   height="430.75"
   viewBox="0 0 625.26251 430.75"
   sodipodi:docname="BestFit_Background.svg"><metadata
     id="metadata8"><rdf:RDF><cc:Work
         rdf:about=""><dc:format>image/svg+xml</dc:format><dc:type
           rdf:resource="http://purl.org/dc/dcmitype/StillImage" /><dc:title></dc:title></cc:Work></rdf:RDF></metadata><defs
     id="defs6"><clipPath
       clipPathUnits="userSpaceOnUse"
       id="clipPath404"><path
         d="m 0,0 455.17186,0 0,303.32202 L 0,303.32202 0,0 Z"
         id="path406"
         inkscape:connector-curvature="0" /></clipPath></defs><sodipodi:namedview
     pagecolor="#ffffff"
     bordercolor="#666666"
     borderopacity="1"
     objecttolerance="10"
     gridtolerance="10"
     guidetolerance="10"
     inkscape:pageopacity="0"
     inkscape:pageshadow="2"
     inkscape:window-width="640"
     inkscape:window-height="480"
     id="namedview4"
     showgrid="false"
     inkscape:zoom="0.5478816"
     inkscape:cx="312.63126"
     inkscape:cy="215.375"
     inkscape:window-x="0"
     inkscape:window-y="0"
     inkscape:window-maximized="0"
     inkscape:current-layer="g10" /><g
     id="g10"
     inkscape:groupmode="layer"
     inkscape:label="BestFit_Background"
     transform="matrix(1.25,0,0,-1.25,0,430.75)"><g
       id="g12"
       transform="translate(72,272.6)"><g
         id="g14"
         transform="translate(-38.99,-244.97)"><g
           id="g16"><g
             id="g18"><g
               id="g20" /><g
               id="g22" /><g
               id="g24"><g
                 id="g26"
                 transform="scale(-1,-1)"><g
                   id="g28" /><g
                   id="g30"
                   transform="matrix(-1,0,0,-1,-38.99,-244.97)"><g
                     id="g32" /><g
                     id="g34" /><g
                     id="g36"
                     transform="translate(-38.99,-244.97)" /></g></g></g><g
               id="g38" /><g
               id="g40" /><g
               id="g42" /><g
               id="g44" /><g
               id="g46"><g
                 id="g48"
                 transform="scale(-1,-1)"><g
                   id="g50" /><g
                   id="g52"
                   transform="matrix(-1,0,0,-1,-38.99,-244.97)"><g
                     id="g54" /><g
                     id="g56"
                     transform="translate(-31.02,-25.64)"><g
                       id="g58"
                       transform="translate(-7.98,-219.33)"><g
                         id="g60"><g
                           id="g62"><g
                             id="g64"><g
                               id="g66"><g
                                 id="g68"><path
                                   d="m 37.93098,0 0,303.32202 M 113.79295,0 l 0,303.32202 M 189.65494,0 l 0,303.32202 M 265.5169,0 l 0,303.32202 M 341.37889,0 l 0,303.32202 M 417.24086,0 l 0,303.32202"
                                   style="fill:none;stroke:#bfbfbf;stroke-width:0.3985;stroke-linecap:butt;stroke-linejoin:miter;stroke-miterlimit:10;stroke-dasharray:none;stroke-opacity:1"
                                   id="path70"
                                   inkscape:connector-curvature="0" /></g><g
                                 id="g72"><path
                                   d="m 75.86197,0 0,303.32202 M 151.72395,0 l 0,303.32202 M 227.58592,0 l 0,303.32202 M 303.4479,0 l 0,303.32202 M 379.30988,0 l 0,303.32202 M 455.17186,0 l 0,303.32202"
                                   style="fill:none;stroke:#bfbfbf;stroke-width:1.19553006;stroke-linecap:butt;stroke-linejoin:miter;stroke-miterlimit:10;stroke-dasharray:none;stroke-opacity:1"
                                   id="path74"
                                   inkscape:connector-curvature="0" /></g></g><g
                               id="g76"><g
                                 id="g78"><path
                                   d="m 0,18.95763 455.17186,0 M 0,56.87288 l 455.17186,0 M 0,94.78813 l 455.17186,0 M 0,132.70338 l 455.17186,0 M 0,170.61864 l 455.17186,0 M 0,208.53389 l 455.17186,0 M 0,246.44914 l 455.17186,0 M 0,284.3644 l 455.17186,0"
                                   style="fill:none;stroke:#bfbfbf;stroke-width:0.3985;stroke-linecap:butt;stroke-linejoin:miter;stroke-miterlimit:10;stroke-dasharray:none;stroke-opacity:1"
                                   id="path80"
                                   inkscape:connector-curvature="0" /></g><g
                                 id="g82"><path
                                   d="m 0,37.91525 455.17186,0 M 0,75.8305 l 455.17186,0 M 0,113.74576 l 455.17186,0 M 0,151.66101 l 455.17186,0 M 0,189.57626 l 455.17186,0 M 0,227.49152 l 455.17186,0 M 0,265.40677 l 455.17186,0 M 0,303.32202 l 455.17186,0"
                                   style="fill:none;stroke:#bfbfbf;stroke-width:1.19553006;stroke-linecap:butt;stroke-linejoin:miter;stroke-miterlimit:10;stroke-dasharray:none;stroke-opacity:1"
                                   id="path84"
                                   inkscape:connector-curvature="0" /></g></g><g
                               id="g86"><g
                                 id="g88"><path
                                   d="m 37.93098,-1.41745 0,2.83492 m 75.86197,-2.83492 0,2.83492 m 75.86199,-2.83492 0,2.83492 m 75.86196,-2.83492 0,2.83492 m 75.86199,-2.83492 0,2.83492 m 75.86197,-2.83492 0,2.83492"
                                   style="fill:none;stroke:#808080;stroke-width:0.19925;stroke-linecap:butt;stroke-linejoin:miter;stroke-miterlimit:10;stroke-dasharray:none;stroke-opacity:1"
                                   id="path90"
                                   inkscape:connector-curvature="0" /></g><g
                                 id="g92"><path
                                   d="m 75.86197,-2.12599 0,4.25198 m 75.86198,-4.25198 0,4.25198 m 75.86197,-4.25198 0,4.25198 m 75.86198,-4.25198 0,4.25198 m 75.86198,-4.25198 0,4.25198 m 75.86198,-4.25198 0,4.25198"
                                   style="fill:none;stroke:#808080;stroke-width:0.19925;stroke-linecap:butt;stroke-linejoin:miter;stroke-miterlimit:10;stroke-dasharray:none;stroke-opacity:1"
                                   id="path94"
                                   inkscape:connector-curvature="0" /></g></g><g
                               id="g96"><g
                                 id="g98"><path
                                   d="m -1.41718,18.95763 2.83448,0 m -2.83448,37.91525 2.83448,0 m -2.83448,37.91525 2.83448,0 m -2.83448,37.91525 2.83448,0 m -2.83448,37.91526 2.83448,0 m -2.83448,37.91525 2.83448,0 m -2.83448,37.91525 2.83448,0 m -2.83448,37.91526 2.83448,0"
                                   style="fill:none;stroke:#808080;stroke-width:0.19925;stroke-linecap:butt;stroke-linejoin:miter;stroke-miterlimit:10;stroke-dasharray:none;stroke-opacity:1"
                                   id="path100"
                                   inkscape:connector-curvature="0" /></g><g
                                 id="g102"><path
                                   d="m -2.12573,37.91525 4.25146,0 m -4.25146,37.91525 4.25146,0 m -4.25146,37.91526 4.25146,0 m -4.25146,37.91525 4.25146,0 m -4.25146,37.91525 4.25146,0 m -4.25146,37.91526 4.25146,0 m -4.25146,37.91525 4.25146,0 m -4.25146,37.91525 4.25146,0"
                                   style="fill:none;stroke:#808080;stroke-width:0.19925;stroke-linecap:butt;stroke-linejoin:miter;stroke-miterlimit:10;stroke-dasharray:none;stroke-opacity:1"
                                   id="path104"
                                   inkscape:connector-curvature="0" /></g></g><path
                               d="M 0,0 453.17934,0"
                               style="fill:none;stroke:#000000;stroke-width:0.3985;stroke-linecap:butt;stroke-linejoin:miter;stroke-miterlimit:10;stroke-dasharray:none;stroke-opacity:1"
                               id="path106"
                               inkscape:connector-curvature="0" /><g
                               id="g108"
                               transform="translate(453.17934,0)"><g
                                 id="g110"><path
                                   d="M 1.99252,0 -1.19551,1.59401 0,0 -1.19551,-1.59401"
                                   style="fill:#000000;fill-opacity:1;fill-rule:nonzero;stroke:none"
                                   id="path112"
                                   inkscape:connector-curvature="0" /></g></g><path
                               d="M 0,0 0,301.3295"
                               style="fill:none;stroke:#000000;stroke-width:0.3985;stroke-linecap:butt;stroke-linejoin:miter;stroke-miterlimit:10;stroke-dasharray:none;stroke-opacity:1"
                               id="path114"
                               inkscape:connector-curvature="0" /><g
                               id="g116"
                               transform="matrix(0,1,-1,0,0,301.3295)"><g
                                 id="g118"><path
                                   d="M 1.99252,0 -1.19551,1.59401 0,0 -1.19551,-1.59401"
                                   style="fill:#000000;fill-opacity:1;fill-rule:nonzero;stroke:none"
                                   id="path120"
                                   inkscape:connector-curvature="0" /></g></g><g
                               id="g122"><g
                                 id="g124"><g
                                   id="g126"
                                   transform="scale(-1,-1)"><g
                                   id="g128" /><g
                                   id="g130"
                                   transform="matrix(-1,0,0,-1,-7.98,-219.33)"><g
                                   id="g132" /><g
                                   id="g134"
                                   transform="translate(71.56,-19.7)"><text
                                   transform="matrix(1,0,0,-1,-7.98,-219.33)"
                                   style="font-variant:normal;font-weight:normal;font-size:17.21500015px;font-family:'Times New Roman';-inkscape-font-specification:TimesNewRomanPSMT;writing-mode:lr-tb;fill:#000000;fill-opacity:1;fill-rule:nonzero;stroke:none"
                                   id="text136"><tspan
                                   x="0"
                                   y="0"
                                   id="tspan138">1</tspan></text>
</g><g
                                   id="g140"
                                   transform="translate(-7.98,-219.33)" /></g></g></g></g><g
                               id="g142"><g
                                 id="g144"><g
                                   id="g146"
                                   transform="scale(-1,-1)"><g
                                   id="g148" /><g
                                   id="g150"
                                   transform="matrix(-1,0,0,-1,-7.98,-219.33)"><g
                                   id="g152" /><g
                                   id="g154"
                                   transform="translate(147.42,-19.7)"><text
                                   transform="matrix(1,0,0,-1,-7.98,-219.33)"
                                   style="font-variant:normal;font-weight:normal;font-size:17.21500015px;font-family:'Times New Roman';-inkscape-font-specification:TimesNewRomanPSMT;writing-mode:lr-tb;fill:#000000;fill-opacity:1;fill-rule:nonzero;stroke:none"
                                   id="text156"><tspan
                                   x="0"
                                   y="0"
                                   id="tspan158">2</tspan></text>
</g><g
                                   id="g160"
                                   transform="translate(-7.98,-219.33)" /></g></g></g></g><g
                               id="g162"><g
                                 id="g164"><g
                                   id="g166"
                                   transform="scale(-1,-1)"><g
                                   id="g168" /><g
                                   id="g170"
                                   transform="matrix(-1,0,0,-1,-7.98,-219.33)"><g
                                   id="g172" /><g
                                   id="g174"
                                   transform="translate(223.28,-19.7)"><text
                                   transform="matrix(1,0,0,-1,-7.98,-219.33)"
                                   style="font-variant:normal;font-weight:normal;font-size:17.21500015px;font-family:'Times New Roman';-inkscape-font-specification:TimesNewRomanPSMT;writing-mode:lr-tb;fill:#000000;fill-opacity:1;fill-rule:nonzero;stroke:none"
                                   id="text176"><tspan
                                   x="0"
                                   y="0"
                                   id="tspan178">3</tspan></text>
</g><g
                                   id="g180"
                                   transform="translate(-7.98,-219.33)" /></g></g></g></g><g
                               id="g182"><g
                                 id="g184"><g
                                   id="g186"
                                   transform="scale(-1,-1)"><g
                                   id="g188" /><g
                                   id="g190"
                                   transform="matrix(-1,0,0,-1,-7.98,-219.33)"><g
                                   id="g192" /><g
                                   id="g194"
                                   transform="translate(299.14,-19.7)"><text
                                   transform="matrix(1,0,0,-1,-7.98,-219.33)"
                                   style="font-variant:normal;font-weight:normal;font-size:17.21500015px;font-family:'Times New Roman';-inkscape-font-specification:TimesNewRomanPSMT;writing-mode:lr-tb;fill:#000000;fill-opacity:1;fill-rule:nonzero;stroke:none"
                                   id="text196"><tspan
                                   x="0"
                                   y="0"
                                   id="tspan198">4</tspan></text>
</g><g
                                   id="g200"
                                   transform="translate(-7.98,-219.33)" /></g></g></g></g><g
                               id="g202"><g
                                 id="g204"><g
                                   id="g206"
                                   transform="scale(-1,-1)"><g
                                   id="g208" /><g
                                   id="g210"
                                   transform="matrix(-1,0,0,-1,-7.98,-219.33)"><g
                                   id="g212" /><g
                                   id="g214"
                                   transform="translate(375.01,-19.46)"><text
                                   transform="matrix(1,0,0,-1,-7.98,-219.33)"
                                   style="font-variant:normal;font-weight:normal;font-size:17.21500015px;font-family:'Times New Roman';-inkscape-font-specification:TimesNewRomanPSMT;writing-mode:lr-tb;fill:#000000;fill-opacity:1;fill-rule:nonzero;stroke:none"
                                   id="text216"><tspan
                                   x="0"
                                   y="0"
                                   id="tspan218">5</tspan></text>
</g><g
                                   id="g220"
                                   transform="translate(-7.98,-219.33)" /></g></g></g></g><g
                               id="g222"><g
                                 id="g224"><g
                                   id="g226"
                                   transform="scale(-1,-1)"><g
                                   id="g228" /><g
                                   id="g230"
                                   transform="matrix(-1,0,0,-1,-7.98,-219.33)"><g
                                   id="g232" /><g
                                   id="g234"
                                   transform="translate(450.87,-19.7)"><text
                                   transform="matrix(1,0,0,-1,-7.98,-219.33)"
                                   style="font-variant:normal;font-weight:normal;font-size:17.21500015px;font-family:'Times New Roman';-inkscape-font-specification:TimesNewRomanPSMT;writing-mode:lr-tb;fill:#000000;fill-opacity:1;fill-rule:nonzero;stroke:none"
                                   id="text236"><tspan
                                   x="0"
                                   y="0"
                                   id="tspan238">6</tspan></text>
</g><g
                                   id="g240"
                                   transform="translate(-7.98,-219.33)" /></g></g></g></g><g
                               id="g242"><g
                                 id="g244"><g
                                   id="g246"
                                   transform="scale(-1,-1)"><g
                                   id="g248" /><g
                                   id="g250"
                                   transform="matrix(-1,0,0,-1,-7.98,-219.33)"><g
                                   id="g252" /><g
                                   id="g254"
                                   transform="translate(-25.28,32.2)"><text
                                   transform="matrix(1,0,0,-1,-7.98,-219.33)"
                                   style="font-variant:normal;font-weight:normal;font-size:17.21500015px;font-family:'Times New Roman';-inkscape-font-specification:TimesNewRomanPSMT;writing-mode:lr-tb;fill:#000000;fill-opacity:1;fill-rule:nonzero;stroke:none"
                                   id="text256"><tspan
                                   x="0 8.6075001"
                                   y="0"
                                   sodipodi:role="line"
                                   id="tspan258">10</tspan></text>
</g><g
                                   id="g260"
                                   transform="translate(-7.98,-219.33)" /></g></g></g></g><g
                               id="g262"><g
                                 id="g264"><g
                                   id="g266"
                                   transform="scale(-1,-1)"><g
                                   id="g268" /><g
                                   id="g270"
                                   transform="matrix(-1,0,0,-1,-7.98,-219.33)"><g
                                   id="g272" /><g
                                   id="g274"
                                   transform="translate(-25.28,70.11)"><text
                                   transform="matrix(1,0,0,-1,-7.98,-219.33)"
                                   style="font-variant:normal;font-weight:normal;font-size:17.21500015px;font-family:'Times New Roman';-inkscape-font-specification:TimesNewRomanPSMT;writing-mode:lr-tb;fill:#000000;fill-opacity:1;fill-rule:nonzero;stroke:none"
                                   id="text276"><tspan
                                   x="0 8.6075001"
                                   y="0"
                                   sodipodi:role="line"
                                   id="tspan278">20</tspan></text>
</g><g
                                   id="g280"
                                   transform="translate(-7.98,-219.33)" /></g></g></g></g><g
                               id="g282"><g
                                 id="g284"><g
                                   id="g286"
                                   transform="scale(-1,-1)"><g
                                   id="g288" /><g
                                   id="g290"
                                   transform="matrix(-1,0,0,-1,-7.98,-219.33)"><g
                                   id="g292" /><g
                                   id="g294"
                                   transform="translate(-25.28,108.03)"><text
                                   transform="matrix(1,0,0,-1,-7.98,-219.33)"
                                   style="font-variant:normal;font-weight:normal;font-size:17.21500015px;font-family:'Times New Roman';-inkscape-font-specification:TimesNewRomanPSMT;writing-mode:lr-tb;fill:#000000;fill-opacity:1;fill-rule:nonzero;stroke:none"
                                   id="text296"><tspan
                                   x="0 8.6075001"
                                   y="0"
                                   sodipodi:role="line"
                                   id="tspan298">30</tspan></text>
</g><g
                                   id="g300"
                                   transform="translate(-7.98,-219.33)" /></g></g></g></g><g
                               id="g302"><g
                                 id="g304"><g
                                   id="g306"
                                   transform="scale(-1,-1)"><g
                                   id="g308" /><g
                                   id="g310"
                                   transform="matrix(-1,0,0,-1,-7.98,-219.33)"><g
                                   id="g312" /><g
                                   id="g314"
                                   transform="translate(-25.28,145.94)"><text
                                   transform="matrix(1,0,0,-1,-7.98,-219.33)"
                                   style="font-variant:normal;font-weight:normal;font-size:17.21500015px;font-family:'Times New Roman';-inkscape-font-specification:TimesNewRomanPSMT;writing-mode:lr-tb;fill:#000000;fill-opacity:1;fill-rule:nonzero;stroke:none"
                                   id="text316"><tspan
                                   x="0 8.6075001"
                                   y="0"
                                   sodipodi:role="line"
                                   id="tspan318">40</tspan></text>
</g><g
                                   id="g320"
                                   transform="translate(-7.98,-219.33)" /></g></g></g></g><g
                               id="g322"><g
                                 id="g324"><g
                                   id="g326"
                                   transform="scale(-1,-1)"><g
                                   id="g328" /><g
                                   id="g330"
                                   transform="matrix(-1,0,0,-1,-7.98,-219.33)"><g
                                   id="g332" /><g
                                   id="g334"
                                   transform="translate(-25.28,183.86)"><text
                                   transform="matrix(1,0,0,-1,-7.98,-219.33)"
                                   style="font-variant:normal;font-weight:normal;font-size:17.21500015px;font-family:'Times New Roman';-inkscape-font-specification:TimesNewRomanPSMT;writing-mode:lr-tb;fill:#000000;fill-opacity:1;fill-rule:nonzero;stroke:none"
                                   id="text336"><tspan
                                   x="0 8.6075001"
                                   y="0"
                                   sodipodi:role="line"
                                   id="tspan338">50</tspan></text>
</g><g
                                   id="g340"
                                   transform="translate(-7.98,-219.33)" /></g></g></g></g><g
                               id="g342"><g
                                 id="g344"><g
                                   id="g346"
                                   transform="scale(-1,-1)"><g
                                   id="g348" /><g
                                   id="g350"
                                   transform="matrix(-1,0,0,-1,-7.98,-219.33)"><g
                                   id="g352" /><g
                                   id="g354"
                                   transform="translate(-25.28,221.78)"><text
                                   transform="matrix(1,0,0,-1,-7.98,-219.33)"
                                   style="font-variant:normal;font-weight:normal;font-size:17.21500015px;font-family:'Times New Roman';-inkscape-font-specification:TimesNewRomanPSMT;writing-mode:lr-tb;fill:#000000;fill-opacity:1;fill-rule:nonzero;stroke:none"
                                   id="text356"><tspan
                                   x="0 8.6075001"
                                   y="0"
                                   sodipodi:role="line"
                                   id="tspan358">60</tspan></text>
</g><g
                                   id="g360"
                                   transform="translate(-7.98,-219.33)" /></g></g></g></g><g
                               id="g362"><g
                                 id="g364"><g
                                   id="g366"
                                   transform="scale(-1,-1)"><g
                                   id="g368" /><g
                                   id="g370"
                                   transform="matrix(-1,0,0,-1,-7.98,-219.33)"><g
                                   id="g372" /><g
                                   id="g374"
                                   transform="translate(-25.28,259.71)"><text
                                   transform="matrix(1,0,0,-1,-7.98,-219.33)"
                                   style="font-variant:normal;font-weight:normal;font-size:17.21500015px;font-family:'Times New Roman';-inkscape-font-specification:TimesNewRomanPSMT;writing-mode:lr-tb;fill:#000000;fill-opacity:1;fill-rule:nonzero;stroke:none"
                                   id="text376"><tspan
                                   x="0 8.6075001"
                                   y="0"
                                   sodipodi:role="line"
                                   id="tspan378">70</tspan></text>
</g><g
                                   id="g380"
                                   transform="translate(-7.98,-219.33)" /></g></g></g></g><g
                               id="g382"><g
                                 id="g384"><g
                                   id="g386"
                                   transform="scale(-1,-1)"><g
                                   id="g388" /><g
                                   id="g390"
                                   transform="matrix(-1,0,0,-1,-7.98,-219.33)"><g
                                   id="g392" /><g
                                   id="g394"
                                   transform="translate(-25.28,297.61)"><text
                                   transform="matrix(1,0,0,-1,-7.98,-219.33)"
                                   style="font-variant:normal;font-weight:normal;font-size:17.21500015px;font-family:'Times New Roman';-inkscape-font-specification:TimesNewRomanPSMT;writing-mode:lr-tb;fill:#000000;fill-opacity:1;fill-rule:nonzero;stroke:none"
                                   id="text396"><tspan
                                   x="0 8.6075001"
                                   y="0"
                                   sodipodi:role="line"
                                   id="tspan398">80</tspan></text>
</g><g
                                   id="g400"
                                   transform="translate(-7.98,-219.33)" /></g></g></g></g><g
                               id="g402"
                               clip-path="url(#clipPath404)" /></g><g
                             id="g408"><path
                               d="m 115.7855,187.67975 c 0,1.10046 -0.89207,1.99255 -1.99255,1.99255 -1.10046,0 -1.99255,-0.89209 -1.99255,-1.99255 0,-1.10048 0.89209,-1.99255 1.99255,-1.99255 1.10048,0 1.99255,0.89207 1.99255,1.99255 z"
                               style="fill:#0000ff;fill-opacity:1;fill-rule:nonzero;stroke:#0000ff;stroke-width:0.3985;stroke-linecap:butt;stroke-linejoin:miter;stroke-miterlimit:10;stroke-dasharray:none;stroke-opacity:1"
                               id="path410"
                               inkscape:connector-curvature="0" /><path
                               d="m 134.75099,181.94771 c 0,1.10048 -0.89207,1.99255 -1.99255,1.99255 -1.10047,0 -1.99256,-0.89207 -1.99256,-1.99255 0,-1.10047 0.89209,-1.99256 1.99256,-1.99256 1.10048,0 1.99255,0.89209 1.99255,1.99256 z"
                               style="fill:#0000ff;fill-opacity:1;fill-rule:nonzero;stroke:#0000ff;stroke-width:0.3985;stroke-linecap:butt;stroke-linejoin:miter;stroke-miterlimit:10;stroke-dasharray:none;stroke-opacity:1"
                               id="path412"
                               inkscape:connector-curvature="0" /><path
                               d="m 153.7165,176.91522 c 0,1.10047 -0.89208,1.99256 -1.99255,1.99256 -1.10048,0 -1.99255,-0.89209 -1.99255,-1.99256 0,-1.10048 0.89207,-1.99255 1.99255,-1.99255 1.10047,0 1.99255,0.89207 1.99255,1.99255 z"
                               style="fill:#0000ff;fill-opacity:1;fill-rule:nonzero;stroke:#0000ff;stroke-width:0.3985;stroke-linecap:butt;stroke-linejoin:miter;stroke-miterlimit:10;stroke-dasharray:none;stroke-opacity:1"
                               id="path414"
                               inkscape:connector-curvature="0" /><path
                               d="m 172.68199,157.42108 c 0,1.10048 -0.89209,1.99256 -1.99255,1.99256 -1.10048,0 -1.99256,-0.89208 -1.99256,-1.99256 0,-1.10046 0.89208,-1.99255 1.99256,-1.99255 1.10046,0 1.99255,0.89209 1.99255,1.99255 z"
                               style="fill:#0000ff;fill-opacity:1;fill-rule:nonzero;stroke:#0000ff;stroke-width:0.3985;stroke-linecap:butt;stroke-linejoin:miter;stroke-miterlimit:10;stroke-dasharray:none;stroke-opacity:1"
                               id="path416"
                               inkscape:connector-curvature="0" /><path
                               d="m 191.64749,161.07991 c 0,1.10048 -0.89209,1.99255 -1.99255,1.99255 -1.10048,0 -1.99256,-0.89207 -1.99256,-1.99255 0,-1.10046 0.89208,-1.99255 1.99256,-1.99255 1.10046,0 1.99255,0.89209 1.99255,1.99255 z"
                               style="fill:#0000ff;fill-opacity:1;fill-rule:nonzero;stroke:#0000ff;stroke-width:0.3985;stroke-linecap:butt;stroke-linejoin:miter;stroke-miterlimit:10;stroke-dasharray:none;stroke-opacity:1"
                               id="path418"
                               inkscape:connector-curvature="0" /><path
                               d="m 210.61298,139.68623 c 0,1.10047 -0.89209,1.99256 -1.99256,1.99256 -1.10048,0 -1.99255,-0.89209 -1.99255,-1.99256 0,-1.10048 0.89207,-1.99255 1.99255,-1.99255 1.10047,0 1.99256,0.89207 1.99256,1.99255 z"
                               style="fill:#0000ff;fill-opacity:1;fill-rule:nonzero;stroke:#0000ff;stroke-width:0.3985;stroke-linecap:butt;stroke-linejoin:miter;stroke-miterlimit:10;stroke-dasharray:none;stroke-opacity:1"
                               id="path420"
                               inkscape:connector-curvature="0" /><path
                               d="m 229.57848,116.79642 c 0,1.10046 -0.89209,1.99255 -1.99256,1.99255 -1.10046,0 -1.99255,-0.89209 -1.99255,-1.99255 0,-1.10048 0.89209,-1.99256 1.99255,-1.99256 1.10047,0 1.99256,0.89208 1.99256,1.99256 z"
                               style="fill:#0000ff;fill-opacity:1;fill-rule:nonzero;stroke:#0000ff;stroke-width:0.3985;stroke-linecap:butt;stroke-linejoin:miter;stroke-miterlimit:10;stroke-dasharray:none;stroke-opacity:1"
                               id="path422"
                               inkscape:connector-curvature="0" /><path
                               d="m 248.54396,120.06015 c 0,1.10048 -0.89207,1.99255 -1.99256,1.99255 -1.10046,0 -1.99255,-0.89207 -1.99255,-1.99255 0,-1.10046 0.89209,-1.99255 1.99255,-1.99255 1.10049,0 1.99256,0.89209 1.99256,1.99255 z"
                               style="fill:#0000ff;fill-opacity:1;fill-rule:nonzero;stroke:#0000ff;stroke-width:0.3985;stroke-linecap:butt;stroke-linejoin:miter;stroke-miterlimit:10;stroke-dasharray:none;stroke-opacity:1"
                               id="path424"
                               inkscape:connector-curvature="0" /><path
                               d="m 267.50946,113.00185 c 0,1.10046 -0.89207,1.99255 -1.99256,1.99255 -1.10046,0 -1.99255,-0.89209 -1.99255,-1.99255 0,-1.10047 0.89209,-1.99255 1.99255,-1.99255 1.10049,0 1.99256,0.89208 1.99256,1.99255 z"
                               style="fill:#0000ff;fill-opacity:1;fill-rule:nonzero;stroke:#0000ff;stroke-width:0.3985;stroke-linecap:butt;stroke-linejoin:miter;stroke-miterlimit:10;stroke-dasharray:none;stroke-opacity:1"
                               id="path426"
                               inkscape:connector-curvature="0" /><path
                               d="m 286.47495,92.09537 c 0,1.10048 -0.89208,1.99255 -1.99256,1.99255 -1.10046,0 -1.99255,-0.89207 -1.99255,-1.99255 0,-1.10047 0.89209,-1.99256 1.99255,-1.99256 1.10048,0 1.99256,0.89209 1.99256,1.99256 z"
                               style="fill:#0000ff;fill-opacity:1;fill-rule:nonzero;stroke:#0000ff;stroke-width:0.3985;stroke-linecap:butt;stroke-linejoin:miter;stroke-miterlimit:10;stroke-dasharray:none;stroke-opacity:1"
                               id="path428"
                               inkscape:connector-curvature="0" /><path
                               d="m 305.44046,87.65588 c 0,1.10047 -0.89209,1.99256 -1.99256,1.99256 -1.10047,0 -1.99255,-0.89209 -1.99255,-1.99256 0,-1.10048 0.89208,-1.99255 1.99255,-1.99255 1.10047,0 1.99256,0.89207 1.99256,1.99255 z"
                               style="fill:#0000ff;fill-opacity:1;fill-rule:nonzero;stroke:#0000ff;stroke-width:0.3985;stroke-linecap:butt;stroke-linejoin:miter;stroke-miterlimit:10;stroke-dasharray:none;stroke-opacity:1"
                               id="path430"
                               inkscape:connector-curvature="0" /><path
                               d="m 324.40594,67.63397 c 0,1.10048 -0.89209,1.99256 -1.99255,1.99256 -1.10048,0 -1.99255,-0.89208 -1.99255,-1.99256 0,-1.10046 0.89207,-1.99255 1.99255,-1.99255 1.10046,0 1.99255,0.89209 1.99255,1.99255 z"
                               style="fill:#0000ff;fill-opacity:1;fill-rule:nonzero;stroke:#0000ff;stroke-width:0.3985;stroke-linecap:butt;stroke-linejoin:miter;stroke-miterlimit:10;stroke-dasharray:none;stroke-opacity:1"
                               id="path432"
                               inkscape:connector-curvature="0" /><path
                               d="m 343.37144,59.5239 c 0,1.10047 -0.89209,1.99255 -1.99255,1.99255 -1.10048,0 -1.99255,-0.89208 -1.99255,-1.99255 0,-1.10047 0.89207,-1.99256 1.99255,-1.99256 1.10046,0 1.99255,0.89209 1.99255,1.99256 z"
                               style="fill:#0000ff;fill-opacity:1;fill-rule:nonzero;stroke:#0000ff;stroke-width:0.3985;stroke-linecap:butt;stroke-linejoin:miter;stroke-miterlimit:10;stroke-dasharray:none;stroke-opacity:1"
                               id="path434"
                               inkscape:connector-curvature="0" /></g><g
                             id="g436"><g
                               id="g438"><g
                                 id="g440"
                                 transform="scale(-1,-1)"><g
                                   id="g442" /><g
                                   id="g444"
                                   transform="matrix(-1,0,0,-1,-7.98,-219.33)"><g
                                   id="g446" /><g
                                   id="g448"
                                   transform="translate(416.63,10.04)"><text
                                   transform="matrix(1,0,0,-1,-7.98,-219.33)"
                                   style="font-style:italic;font-variant:normal;font-size:20.66300011px;font-family:'Times New Roman';-inkscape-font-specification:TimesNewRomanPS-ItalicMT;writing-mode:lr-tb;fill:#000000;fill-opacity:1;fill-rule:nonzero;stroke:none"
                                   id="text450"><tspan
                                   x="0"
                                   y="0"
                                   id="tspan452">t</tspan></text>
<text
                                   transform="matrix(1,0,0,-1,2.93,-219.33)"
                                   style="font-variant:normal;font-weight:normal;font-size:20.66300011px;font-family:'Times New Roman';-inkscape-font-specification:TimesNewRomanPSMT;writing-mode:lr-tb;fill:#000000;fill-opacity:1;fill-rule:nonzero;stroke:none"
                                   id="text454"><tspan
                                   x="0 6.8807788 14.918686"
                                   y="0"
                                   sodipodi:role="line"
                                   id="tspan456">[s]</tspan></text>
</g><g
                                   id="g458"
                                   transform="translate(-7.98,-219.33)" /></g></g></g></g><g
                             id="g460"><g
                               id="g462"><g
                                 id="g464"
                                 transform="scale(-1,-1)"><g
                                   id="g466" /><g
                                   id="g468"
                                   transform="matrix(-1,0,0,-1,-7.98,-219.33)"><g
                                   id="g470" /><g
                                   id="g472"
                                   transform="translate(5.94,283.11)"><text
                                   transform="matrix(1,0,0,-1,-7.98,-219.33)"
                                   style="font-style:italic;font-variant:normal;font-size:20.66300011px;font-family:'Times New Roman';-inkscape-font-specification:TimesNewRomanPS-ItalicMT;writing-mode:lr-tb;fill:#000000;fill-opacity:1;fill-rule:nonzero;stroke:none"
                                   id="text474"><tspan
                                   x="0"
                                   y="0"
                                   id="tspan476">v</tspan></text>
<text
                                   transform="matrix(1,0,0,-1,6.36,-219.33)"
                                   style="font-variant:normal;font-weight:normal;font-size:20.66300011px;font-family:'Times New Roman';-inkscape-font-specification:TimesNewRomanPSMT;writing-mode:lr-tb;fill:#000000;fill-opacity:1;fill-rule:nonzero;stroke:none"
                                   id="text478"><tspan
                                   x="0 6.8807788 22.956593 28.700907 36.738815"
                                   y="0"
                                   sodipodi:role="line"
                                   id="tspan480">[m/s]</tspan></text>
</g><g
                                   id="g482"
                                   transform="translate(-7.98,-219.33)" /></g></g></g></g></g></g></g></g><g
                     id="g484"
                     transform="translate(-38.99,-244.97)" /></g></g></g><g
               id="g486" /><g
               id="g488" /></g></g></g></g></g></svg>