<?xml version="1.0" encoding="UTF-8" standalone="no"?>
<!-- Created with Inkscape (http://www.inkscape.org/) -->

<svg
   xmlns:dc="http://purl.org/dc/elements/1.1/"
   xmlns:cc="http://creativecommons.org/ns#"
   xmlns:rdf="http://www.w3.org/1999/02/22-rdf-syntax-ns#"
   xmlns:svg="http://www.w3.org/2000/svg"
   xmlns="http://www.w3.org/2000/svg"
   xmlns:sodipodi="http://sodipodi.sourceforge.net/DTD/sodipodi-0.dtd"
   xmlns:inkscape="http://www.inkscape.org/namespaces/inkscape"
   id="svg2"
   version="1.1"
   inkscape:version="0.91 r13725"
   xml:space="preserve"
   width="636.0625"
   height="489.0625"
   viewBox="0 0 636.0625 489.0625"
   sodipodi:docname="EstimateVelocity_Background.svg"><metadata
     id="metadata8"><rdf:RDF><cc:Work
         rdf:about=""><dc:format>image/svg+xml</dc:format><dc:type
           rdf:resource="http://purl.org/dc/dcmitype/StillImage" /><dc:title></dc:title></cc:Work></rdf:RDF></metadata><defs
     id="defs6"><clipPath
       clipPathUnits="userSpaceOnUse"
       id="clipPath70"><path
         d="m 0,-141.72913 505.16782,0 0,650.88399 -505.16782,0"
         id="path72"
         inkscape:connector-curvature="0" /></clipPath><clipPath
       clipPathUnits="userSpaceOnUse"
       id="clipPath86"><path
         d="m -141.75533,0 0,367.42574 788.67847,0 0,-367.42574"
         id="path88"
         inkscape:connector-curvature="0" /></clipPath><clipPath
       clipPathUnits="userSpaceOnUse"
       id="clipPath102"><path
         d="m 0,-141.72913 505.16782,0 0,650.88399 -505.16782,0"
         id="path104"
         inkscape:connector-curvature="0" /></clipPath><clipPath
       clipPathUnits="userSpaceOnUse"
       id="clipPath118"><path
         d="m -141.75533,0 0,367.42574 788.67847,0 0,-367.42574"
         id="path120"
         inkscape:connector-curvature="0" /></clipPath><clipPath
       clipPathUnits="userSpaceOnUse"
       id="clipPath472"><path
         d="m 0,0 505.16782,0 0,367.42574 L 0,367.42574 0,0 Z"
         id="path474"
         inkscape:connector-curvature="0" /></clipPath></defs><sodipodi:namedview
     pagecolor="#ffffff"
     bordercolor="#666666"
     borderopacity="1"
     objecttolerance="10"
     gridtolerance="10"
     guidetolerance="10"
     inkscape:pageopacity="0"
     inkscape:pageshadow="2"
     inkscape:window-width="660"
     inkscape:window-height="480"
     id="namedview4"
     showgrid="false"
     inkscape:zoom="0.48255591"
     inkscape:cx="318.03125"
     inkscape:cy="244.53125"
     inkscape:window-x="0"
     inkscape:window-y="0"
     inkscape:window-maximized="0"
     inkscape:current-layer="g10" /><g
     id="g10"
     inkscape:groupmode="layer"
     inkscape:label="EstimateVelocity_Background"
     transform="matrix(1.25,0,0,-1.25,0,489.0625)"><g
       id="g12"
       transform="translate(72,319.25)"><g
         id="g14"
         transform="translate(-68.91,-306.98)"><g
           id="g16"><g
             id="g18"><g
               id="g20" /><g
               id="g22" /><g
               id="g24"><g
                 id="g26"
                 transform="scale(-1,-1)"><g
                   id="g28" /><g
                   id="g30"
                   transform="matrix(-1,0,0,-1,-68.91,-306.98)"><g
                     id="g32" /><g
                     id="g34" /><g
                     id="g36"
                     transform="translate(-68.91,-306.98)" /></g></g></g><g
               id="g38" /><g
               id="g40" /><g
               id="g42" /><g
               id="g44" /><g
               id="g46"><g
                 id="g48"
                 transform="scale(-1,-1)"><g
                   id="g50" /><g
                   id="g52"
                   transform="matrix(-1,0,0,-1,-68.91,-306.98)"><g
                     id="g54" /><g
                     id="g56"
                     transform="translate(-0.6,-12.27)"><g
                       id="g58"
                       transform="translate(-68.31,-294.7)"><g
                         id="g60"><g
                           id="g62"><g
                             id="g64"><g
                               id="g66"><g
                                 id="g68"
                                 clip-path="url(#clipPath70)"><g
                                   id="g74"><path
                                   d="m 94.71896,0 0,367.42574 M 157.86494,0 l 0,367.42574 M 221.01091,0 l 0,367.42574 M 284.15689,0 l 0,367.42574 M 347.30287,0 l 0,367.42574 M 410.44885,0 l 0,367.42574 M 473.59483,0 l 0,367.42574"
                                   style="fill:none;stroke:#bfbfbf;stroke-width:0.3985;stroke-linecap:butt;stroke-linejoin:miter;stroke-miterlimit:10;stroke-dasharray:none;stroke-opacity:1"
                                   id="path76"
                                   inkscape:connector-curvature="0" /></g><g
                                   id="g78"><path
                                   d="m 126.29195,0 0,367.42574 M 189.43793,0 l 0,367.42574 M 252.58391,0 l 0,367.42574 M 315.72989,0 l 0,367.42574 M 378.87585,0 l 0,367.42574 M 442.02184,0 l 0,367.42574"
                                   style="fill:none;stroke:#bfbfbf;stroke-width:1.19553006;stroke-linecap:butt;stroke-linejoin:miter;stroke-miterlimit:10;stroke-dasharray:none;stroke-opacity:1"
                                   id="path80"
                                   inkscape:connector-curvature="0" /></g></g></g><g
                               id="g82"><g
                                 id="g84"
                                 clip-path="url(#clipPath86)"><g
                                   id="g90"><path
                                   d="m 0,22.9641 505.16782,0 M 0,68.89232 l 505.16782,0 M 0,114.82054 l 505.16782,0 M 0,160.74875 l 505.16782,0 M 0,206.67697 l 505.16782,0 M 0,252.60518 l 505.16782,0 M 0,298.5334 l 505.16782,0 M 0,344.46162 l 505.16782,0"
                                   style="fill:none;stroke:#bfbfbf;stroke-width:0.3985;stroke-linecap:butt;stroke-linejoin:miter;stroke-miterlimit:10;stroke-dasharray:none;stroke-opacity:1"
                                   id="path92"
                                   inkscape:connector-curvature="0" /></g><g
                                   id="g94"><path
                                   d="M 0,0 505.16782,0 M 0,45.9282 l 505.16782,0 M 0,91.85643 l 505.16782,0 M 0,137.78464 l 505.16782,0 M 0,229.64108 l 505.16782,0 M 0,275.56929 l 505.16782,0 M 0,321.49751 l 505.16782,0 M 0,367.42574 l 505.16782,0"
                                   style="fill:none;stroke:#bfbfbf;stroke-width:1.19553006;stroke-linecap:butt;stroke-linejoin:miter;stroke-miterlimit:10;stroke-dasharray:none;stroke-opacity:1"
                                   id="path96"
                                   inkscape:connector-curvature="0" /></g></g></g><g
                               id="g98"><g
                                 id="g100"
                                 clip-path="url(#clipPath102)"><g
                                   id="g106"><path
                                   d="m 94.71896,182.29549 0,2.83474 m 63.14598,-2.83474 0,2.83474 m 63.14597,-2.83474 0,2.83474 m 63.14598,-2.83474 0,2.83474 m 63.14598,-2.83474 0,2.83474 m 63.14598,-2.83474 0,2.83474 m 63.14598,-2.83474 0,2.83474"
                                   style="fill:none;stroke:#808080;stroke-width:0.19925;stroke-linecap:butt;stroke-linejoin:miter;stroke-miterlimit:10;stroke-dasharray:none;stroke-opacity:1"
                                   id="path108"
                                   inkscape:connector-curvature="0" /></g><g
                                   id="g110"><path
                                   d="m 126.29195,181.58702 0,4.25166 m 63.14598,-4.25166 0,4.25166 m 63.14598,-4.25166 0,4.25166 m 63.14598,-4.25166 0,4.25166 m 63.14596,-4.25166 0,4.25166 m 63.14599,-4.25166 0,4.25166"
                                   style="fill:none;stroke:#808080;stroke-width:0.19925;stroke-linecap:butt;stroke-linejoin:miter;stroke-miterlimit:10;stroke-dasharray:none;stroke-opacity:1"
                                   id="path112"
                                   inkscape:connector-curvature="0" /></g></g></g><g
                               id="g114"><g
                                 id="g116"
                                 clip-path="url(#clipPath118)"><g
                                   id="g122"><path
                                   d="m 61.72833,22.9641 2.83527,0 m -2.83527,45.92822 2.83527,0 m -2.83527,45.92822 2.83527,0 m -2.83527,45.92821 2.83527,0 m -2.83527,45.92822 2.83527,0 m -2.83527,45.92821 2.83527,0 m -2.83527,45.92822 2.83527,0 m -2.83527,45.92822 2.83527,0"
                                   style="fill:none;stroke:#808080;stroke-width:0.19925;stroke-linecap:butt;stroke-linejoin:miter;stroke-miterlimit:10;stroke-dasharray:none;stroke-opacity:1"
                                   id="path124"
                                   inkscape:connector-curvature="0" /></g><g
                                   id="g126"><path
                                   d="m 61.01974,0 4.25245,0 m -4.25245,45.9282 4.25245,0 m -4.25245,45.92823 4.25245,0 m -4.25245,45.92821 4.25245,0 m -4.25245,91.85644 4.25245,0 m -4.25245,45.92821 4.25245,0 m -4.25245,45.92822 4.25245,0 m -4.25245,45.92823 4.25245,0"
                                   style="fill:none;stroke:#808080;stroke-width:0.19925;stroke-linecap:butt;stroke-linejoin:miter;stroke-miterlimit:10;stroke-dasharray:none;stroke-opacity:1"
                                   id="path128"
                                   inkscape:connector-curvature="0" /></g></g></g><g
                               id="g130"><path
                                 d="m 0,183.71286 501.97974,0"
                                 style="fill:none;stroke:#000000;stroke-width:1.19553006;stroke-linecap:butt;stroke-linejoin:miter;stroke-miterlimit:10;stroke-dasharray:none;stroke-opacity:1"
                                 id="path132"
                                 inkscape:connector-curvature="0" /><g
                                 id="g134"
                                 transform="translate(501.97974,183.71286)"><g
                                   id="g136"><path
                                   d="M 3.18808,0 -1.91284,2.55046 0,0 -1.91284,-2.55046"
                                   style="fill:#000000;fill-opacity:1;fill-rule:nonzero;stroke:none"
                                   id="path138"
                                   inkscape:connector-curvature="0" /></g></g></g><g
                               id="g140"><path
                                 d="m 63.14597,0 0,364.23764"
                                 style="fill:none;stroke:#000000;stroke-width:1.19553006;stroke-linecap:butt;stroke-linejoin:miter;stroke-miterlimit:10;stroke-dasharray:none;stroke-opacity:1"
                                 id="path142"
                                 inkscape:connector-curvature="0" /><g
                                 id="g144"
                                 transform="matrix(0,1,-1,0,63.14597,364.23764)"><g
                                   id="g146"><path
                                   d="M 3.18808,0 -1.91284,2.55046 0,0 -1.91284,-2.55046"
                                   style="fill:#000000;fill-opacity:1;fill-rule:nonzero;stroke:none"
                                   id="path148"
                                   inkscape:connector-curvature="0" /></g></g></g><g
                               id="g150"><g
                                 id="g152"><g
                                   id="g154"
                                   transform="scale(-1,-1)"><g
                                   id="g156" /><g
                                   id="g158"
                                   transform="matrix(-1,0,0,-1,-68.31,-294.7)"><g
                                   id="g160" /><g
                                   id="g162"
                                   transform="translate(115.34,164.02)"><text
                                   transform="matrix(1,0,0,-1,-68.31,-294.7)"
                                   style="font-variant:normal;font-weight:normal;font-size:17.21500015px;font-family:'Times New Roman';-inkscape-font-specification:TimesNewRomanPSMT;writing-mode:lr-tb;fill:#000000;fill-opacity:1;fill-rule:nonzero;stroke:none"
                                   id="text164"><tspan
                                   x="0"
                                   y="0"
                                   id="tspan166">0</tspan></text>
<text
                                   transform="matrix(1,0,0,-1,-59.71,-294.7)"
                                   style="font-style:italic;font-variant:normal;font-weight:normal;font-size:17.21500015px;font-family:CMMI12;-inkscape-font-specification:CMMI12;writing-mode:lr-tb;fill:#000000;fill-opacity:1;fill-rule:nonzero;stroke:none"
                                   id="text168"><tspan
                                   x="0"
                                   y="0"
                                   id="tspan170">.</tspan></text>
<text
                                   transform="matrix(1,0,0,-1,-55.02,-294.7)"
                                   style="font-variant:normal;font-weight:normal;font-size:17.21500015px;font-family:'Times New Roman';-inkscape-font-specification:TimesNewRomanPSMT;writing-mode:lr-tb;fill:#000000;fill-opacity:1;fill-rule:nonzero;stroke:none"
                                   id="text172"><tspan
                                   x="0"
                                   y="0"
                                   id="tspan174">5</tspan></text>
</g><g
                                   id="g176"
                                   transform="translate(-68.31,-294.7)" /></g></g></g></g><g
                               id="g178"><g
                                 id="g180"><g
                                   id="g182"
                                   transform="scale(-1,-1)"><g
                                   id="g184" /><g
                                   id="g186"
                                   transform="matrix(-1,0,0,-1,-68.31,-294.7)"><g
                                   id="g188" /><g
                                   id="g190"
                                   transform="translate(185.13,164.02)"><text
                                   transform="matrix(1,0,0,-1,-68.31,-294.7)"
                                   style="font-variant:normal;font-weight:normal;font-size:17.21500015px;font-family:'Times New Roman';-inkscape-font-specification:TimesNewRomanPSMT;writing-mode:lr-tb;fill:#000000;fill-opacity:1;fill-rule:nonzero;stroke:none"
                                   id="text192"><tspan
                                   x="0"
                                   y="0"
                                   id="tspan194">1</tspan></text>
</g><g
                                   id="g196"
                                   transform="translate(-68.31,-294.7)" /></g></g></g></g><g
                               id="g198"><g
                                 id="g200"><g
                                   id="g202"
                                   transform="scale(-1,-1)"><g
                                   id="g204" /><g
                                   id="g206"
                                   transform="matrix(-1,0,0,-1,-68.31,-294.7)"><g
                                   id="g208" /><g
                                   id="g210"
                                   transform="translate(241.63,164.02)"><text
                                   transform="matrix(1,0,0,-1,-68.31,-294.7)"
                                   style="font-variant:normal;font-weight:normal;font-size:17.21500015px;font-family:'Times New Roman';-inkscape-font-specification:TimesNewRomanPSMT;writing-mode:lr-tb;fill:#000000;fill-opacity:1;fill-rule:nonzero;stroke:none"
                                   id="text212"><tspan
                                   x="0"
                                   y="0"
                                   id="tspan214">1</tspan></text>
<text
                                   transform="matrix(1,0,0,-1,-59.71,-294.7)"
                                   style="font-style:italic;font-variant:normal;font-weight:normal;font-size:17.21500015px;font-family:CMMI12;-inkscape-font-specification:CMMI12;writing-mode:lr-tb;fill:#000000;fill-opacity:1;fill-rule:nonzero;stroke:none"
                                   id="text216"><tspan
                                   x="0"
                                   y="0"
                                   id="tspan218">.</tspan></text>
<text
                                   transform="matrix(1,0,0,-1,-55.02,-294.7)"
                                   style="font-variant:normal;font-weight:normal;font-size:17.21500015px;font-family:'Times New Roman';-inkscape-font-specification:TimesNewRomanPSMT;writing-mode:lr-tb;fill:#000000;fill-opacity:1;fill-rule:nonzero;stroke:none"
                                   id="text220"><tspan
                                   x="0"
                                   y="0"
                                   id="tspan222">5</tspan></text>
</g><g
                                   id="g224"
                                   transform="translate(-68.31,-294.7)" /></g></g></g></g><g
                               id="g226"><g
                                 id="g228"><g
                                   id="g230"
                                   transform="scale(-1,-1)"><g
                                   id="g232" /><g
                                   id="g234"
                                   transform="matrix(-1,0,0,-1,-68.31,-294.7)"><g
                                   id="g236" /><g
                                   id="g238"
                                   transform="translate(311.43,164.02)"><text
                                   transform="matrix(1,0,0,-1,-68.31,-294.7)"
                                   style="font-variant:normal;font-weight:normal;font-size:17.21500015px;font-family:'Times New Roman';-inkscape-font-specification:TimesNewRomanPSMT;writing-mode:lr-tb;fill:#000000;fill-opacity:1;fill-rule:nonzero;stroke:none"
                                   id="text240"><tspan
                                   x="0"
                                   y="0"
                                   id="tspan242">2</tspan></text>
</g><g
                                   id="g244"
                                   transform="translate(-68.31,-294.7)" /></g></g></g></g><g
                               id="g246"><g
                                 id="g248"><g
                                   id="g250"
                                   transform="scale(-1,-1)"><g
                                   id="g252" /><g
                                   id="g254"
                                   transform="matrix(-1,0,0,-1,-68.31,-294.7)"><g
                                   id="g256" /><g
                                   id="g258"
                                   transform="translate(367.93,164.02)"><text
                                   transform="matrix(1,0,0,-1,-68.31,-294.7)"
                                   style="font-variant:normal;font-weight:normal;font-size:17.21500015px;font-family:'Times New Roman';-inkscape-font-specification:TimesNewRomanPSMT;writing-mode:lr-tb;fill:#000000;fill-opacity:1;fill-rule:nonzero;stroke:none"
                                   id="text260"><tspan
                                   x="0"
                                   y="0"
                                   id="tspan262">2</tspan></text>
<text
                                   transform="matrix(1,0,0,-1,-59.71,-294.7)"
                                   style="font-style:italic;font-variant:normal;font-weight:normal;font-size:17.21500015px;font-family:CMMI12;-inkscape-font-specification:CMMI12;writing-mode:lr-tb;fill:#000000;fill-opacity:1;fill-rule:nonzero;stroke:none"
                                   id="text264"><tspan
                                   x="0"
                                   y="0"
                                   id="tspan266">.</tspan></text>
<text
                                   transform="matrix(1,0,0,-1,-55.02,-294.7)"
                                   style="font-variant:normal;font-weight:normal;font-size:17.21500015px;font-family:'Times New Roman';-inkscape-font-specification:TimesNewRomanPSMT;writing-mode:lr-tb;fill:#000000;fill-opacity:1;fill-rule:nonzero;stroke:none"
                                   id="text268"><tspan
                                   x="0"
                                   y="0"
                                   id="tspan270">5</tspan></text>
</g><g
                                   id="g272"
                                   transform="translate(-68.31,-294.7)" /></g></g></g></g><g
                               id="g274"><g
                                 id="g276"><g
                                   id="g278"
                                   transform="scale(-1,-1)"><g
                                   id="g280" /><g
                                   id="g282"
                                   transform="matrix(-1,0,0,-1,-68.31,-294.7)"><g
                                   id="g284" /><g
                                   id="g286"
                                   transform="translate(437.72,164.02)"><text
                                   transform="matrix(1,0,0,-1,-68.31,-294.7)"
                                   style="font-variant:normal;font-weight:normal;font-size:17.21500015px;font-family:'Times New Roman';-inkscape-font-specification:TimesNewRomanPSMT;writing-mode:lr-tb;fill:#000000;fill-opacity:1;fill-rule:nonzero;stroke:none"
                                   id="text288"><tspan
                                   x="0"
                                   y="0"
                                   id="tspan290">3</tspan></text>
</g><g
                                   id="g292"
                                   transform="translate(-68.31,-294.7)" /></g></g></g></g><g
                               id="g294"><g
                                 id="g296"><g
                                   id="g298"
                                   transform="scale(-1,-1)"><g
                                   id="g300" /><g
                                   id="g302"
                                   transform="matrix(-1,0,0,-1,-68.31,-294.7)"><g
                                   id="g304" /><g
                                   id="g306"
                                   transform="translate(33.08,-5.1)"><text
                                   transform="matrix(1,0,0,-1,-68.31,-294.7)"
                                   style="font-style:italic;font-variant:normal;font-weight:normal;font-size:17.21500015px;font-family:CMSY10;-inkscape-font-specification:CMSY10;writing-mode:lr-tb;fill:#000000;fill-opacity:1;fill-rule:nonzero;stroke:none"
                                   id="text308"><tspan
                                   x="0"
                                   y="0"
                                   id="tspan310">−</tspan></text>
<text
                                   transform="matrix(1,0,0,-1,-54.92,-294.7)"
                                   style="font-variant:normal;font-weight:normal;font-size:17.21500015px;font-family:'Times New Roman';-inkscape-font-specification:TimesNewRomanPSMT;writing-mode:lr-tb;fill:#000000;fill-opacity:1;fill-rule:nonzero;stroke:none"
                                   id="text312"><tspan
                                   x="0"
                                   y="0"
                                   id="tspan314">4</tspan></text>
</g><g
                                   id="g316"
                                   transform="translate(-68.31,-294.7)" /></g></g></g></g><g
                               id="g318"><g
                                 id="g320"><g
                                   id="g322"
                                   transform="scale(-1,-1)"><g
                                   id="g324" /><g
                                   id="g326"
                                   transform="matrix(-1,0,0,-1,-68.31,-294.7)"><g
                                   id="g328" /><g
                                   id="g330"
                                   transform="translate(33.08,40.83)"><text
                                   transform="matrix(1,0,0,-1,-68.31,-294.7)"
                                   style="font-style:italic;font-variant:normal;font-weight:normal;font-size:17.21500015px;font-family:CMSY10;-inkscape-font-specification:CMSY10;writing-mode:lr-tb;fill:#000000;fill-opacity:1;fill-rule:nonzero;stroke:none"
                                   id="text332"><tspan
                                   x="0"
                                   y="0"
                                   id="tspan334">−</tspan></text>
<text
                                   transform="matrix(1,0,0,-1,-54.92,-294.7)"
                                   style="font-variant:normal;font-weight:normal;font-size:17.21500015px;font-family:'Times New Roman';-inkscape-font-specification:TimesNewRomanPSMT;writing-mode:lr-tb;fill:#000000;fill-opacity:1;fill-rule:nonzero;stroke:none"
                                   id="text336"><tspan
                                   x="0"
                                   y="0"
                                   id="tspan338">3</tspan></text>
</g><g
                                   id="g340"
                                   transform="translate(-68.31,-294.7)" /></g></g></g></g><g
                               id="g342"><g
                                 id="g344"><g
                                   id="g346"
                                   transform="scale(-1,-1)"><g
                                   id="g348" /><g
                                   id="g350"
                                   transform="matrix(-1,0,0,-1,-68.31,-294.7)"><g
                                   id="g352" /><g
                                   id="g354"
                                   transform="translate(33.08,86.76)"><text
                                   transform="matrix(1,0,0,-1,-68.31,-294.7)"
                                   style="font-style:italic;font-variant:normal;font-weight:normal;font-size:17.21500015px;font-family:CMSY10;-inkscape-font-specification:CMSY10;writing-mode:lr-tb;fill:#000000;fill-opacity:1;fill-rule:nonzero;stroke:none"
                                   id="text356"><tspan
                                   x="0"
                                   y="0"
                                   id="tspan358">−</tspan></text>
<text
                                   transform="matrix(1,0,0,-1,-54.92,-294.7)"
                                   style="font-variant:normal;font-weight:normal;font-size:17.21500015px;font-family:'Times New Roman';-inkscape-font-specification:TimesNewRomanPSMT;writing-mode:lr-tb;fill:#000000;fill-opacity:1;fill-rule:nonzero;stroke:none"
                                   id="text360"><tspan
                                   x="0"
                                   y="0"
                                   id="tspan362">2</tspan></text>
</g><g
                                   id="g364"
                                   transform="translate(-68.31,-294.7)" /></g></g></g></g><g
                               id="g366"><g
                                 id="g368"><g
                                   id="g370"
                                   transform="scale(-1,-1)"><g
                                   id="g372" /><g
                                   id="g374"
                                   transform="matrix(-1,0,0,-1,-68.31,-294.7)"><g
                                   id="g376" /><g
                                   id="g378"
                                   transform="translate(33.08,132.68)"><text
                                   transform="matrix(1,0,0,-1,-68.31,-294.7)"
                                   style="font-style:italic;font-variant:normal;font-weight:normal;font-size:17.21500015px;font-family:CMSY10;-inkscape-font-specification:CMSY10;writing-mode:lr-tb;fill:#000000;fill-opacity:1;fill-rule:nonzero;stroke:none"
                                   id="text380"><tspan
                                   x="0"
                                   y="0"
                                   id="tspan382">−</tspan></text>
<text
                                   transform="matrix(1,0,0,-1,-54.92,-294.7)"
                                   style="font-variant:normal;font-weight:normal;font-size:17.21500015px;font-family:'Times New Roman';-inkscape-font-specification:TimesNewRomanPSMT;writing-mode:lr-tb;fill:#000000;fill-opacity:1;fill-rule:nonzero;stroke:none"
                                   id="text384"><tspan
                                   x="0"
                                   y="0"
                                   id="tspan386">1</tspan></text>
</g><g
                                   id="g388"
                                   transform="translate(-68.31,-294.7)" /></g></g></g></g><g
                               id="g390"><g
                                 id="g392"><g
                                   id="g394"
                                   transform="scale(-1,-1)"><g
                                   id="g396" /><g
                                   id="g398"
                                   transform="matrix(-1,0,0,-1,-68.31,-294.7)"><g
                                   id="g400" /><g
                                   id="g402"
                                   transform="translate(46.47,223.82)"><text
                                   transform="matrix(1,0,0,-1,-68.31,-294.7)"
                                   style="font-variant:normal;font-weight:normal;font-size:17.21500015px;font-family:'Times New Roman';-inkscape-font-specification:TimesNewRomanPSMT;writing-mode:lr-tb;fill:#000000;fill-opacity:1;fill-rule:nonzero;stroke:none"
                                   id="text404"><tspan
                                   x="0"
                                   y="0"
                                   id="tspan406">1</tspan></text>
</g><g
                                   id="g408"
                                   transform="translate(-68.31,-294.7)" /></g></g></g></g><g
                               id="g410"><g
                                 id="g412"><g
                                   id="g414"
                                   transform="scale(-1,-1)"><g
                                   id="g416" /><g
                                   id="g418"
                                   transform="matrix(-1,0,0,-1,-68.31,-294.7)"><g
                                   id="g420" /><g
                                   id="g422"
                                   transform="translate(46.47,269.75)"><text
                                   transform="matrix(1,0,0,-1,-68.31,-294.7)"
                                   style="font-variant:normal;font-weight:normal;font-size:17.21500015px;font-family:'Times New Roman';-inkscape-font-specification:TimesNewRomanPSMT;writing-mode:lr-tb;fill:#000000;fill-opacity:1;fill-rule:nonzero;stroke:none"
                                   id="text424"><tspan
                                   x="0"
                                   y="0"
                                   id="tspan426">2</tspan></text>
</g><g
                                   id="g428"
                                   transform="translate(-68.31,-294.7)" /></g></g></g></g><g
                               id="g430"><g
                                 id="g432"><g
                                   id="g434"
                                   transform="scale(-1,-1)"><g
                                   id="g436" /><g
                                   id="g438"
                                   transform="matrix(-1,0,0,-1,-68.31,-294.7)"><g
                                   id="g440" /><g
                                   id="g442"
                                   transform="translate(46.47,315.78)"><text
                                   transform="matrix(1,0,0,-1,-68.31,-294.7)"
                                   style="font-variant:normal;font-weight:normal;font-size:17.21500015px;font-family:'Times New Roman';-inkscape-font-specification:TimesNewRomanPSMT;writing-mode:lr-tb;fill:#000000;fill-opacity:1;fill-rule:nonzero;stroke:none"
                                   id="text444"><tspan
                                   x="0"
                                   y="0"
                                   id="tspan446">3</tspan></text>
</g><g
                                   id="g448"
                                   transform="translate(-68.31,-294.7)" /></g></g></g></g><g
                               id="g450"><g
                                 id="g452"><g
                                   id="g454"
                                   transform="scale(-1,-1)"><g
                                   id="g456" /><g
                                   id="g458"
                                   transform="matrix(-1,0,0,-1,-68.31,-294.7)"><g
                                   id="g460" /><g
                                   id="g462"
                                   transform="translate(46.47,361.61)"><text
                                   transform="matrix(1,0,0,-1,-68.31,-294.7)"
                                   style="font-variant:normal;font-weight:normal;font-size:17.21500015px;font-family:'Times New Roman';-inkscape-font-specification:TimesNewRomanPSMT;writing-mode:lr-tb;fill:#000000;fill-opacity:1;fill-rule:nonzero;stroke:none"
                                   id="text464"><tspan
                                   x="0"
                                   y="0"
                                   id="tspan466">4</tspan></text>
</g><g
                                   id="g468"
                                   transform="translate(-68.31,-294.7)" /></g></g></g></g><g
                               id="g470"
                               clip-path="url(#clipPath472)"><g
                                 id="g476"><path
                                   d="m -568.3138,205.85811 c 0,0 9.21588,-5.51386 12.75547,-7.66023 3.53958,-2.14637 9.21588,-5.63298 12.75546,-7.80936 3.53958,-2.17638 9.21587,-5.69255 12.75545,-7.87651 3.53959,-2.18396 9.21588,-5.69446 12.75546,-7.86401 3.53959,-2.16956 9.21586,-5.63941 12.75545,-7.77266 3.53959,-2.13327 9.21588,-5.52758 12.75547,-7.60245 3.53958,-2.07488 9.21587,-5.35659 12.75547,-7.35184 3.53957,-1.99524 9.21585,-5.13344 12.75544,-7.02856 3.53958,-1.89515 9.21589,-4.85429 12.75547,-6.63039 3.53958,-1.77609 9.21586,-4.53157 12.75544,-6.1705 3.53958,-1.63895 9.21589,-4.1567 12.75547,-5.64192 3.53958,-1.48522 9.21586,-3.74677 12.75545,-5.06256 3.53958,-1.31579 9.21588,-3.28795 12.75546,-4.42078 3.53958,-1.13283 9.21588,-2.80461 12.75546,-3.74384 3.53958,-0.93922 9.21587,-2.28985 12.75545,-3.02552 3.53958,-0.73568 9.21588,-1.75222 12.75546,-2.27674 3.53958,-0.52454 9.21587,-1.19614 12.75545,-1.5038 3.53958,-0.30766 9.21588,-0.62567 12.75546,-0.71362 3.53958,-0.088 9.21586,-0.0526 12.75545,0.0796 3.53958,0.13228 9.21588,0.52261 12.75546,0.8737 3.53958,0.35109 9.21588,1.09003 12.75546,1.6568 3.53959,0.56679 9.21587,1.65117 12.75545,2.42824 3.53958,0.77705 9.21588,2.19322 12.75546,3.17232 3.53958,0.9791 9.21587,2.71364 12.75545,3.88437 3.53958,1.17074 9.21588,3.20338 12.75546,4.55351 3.53958,1.35014 9.21587,3.6606 12.75545,5.17734 3.53958,1.51675 9.21588,4.08615 12.75546,5.75435 3.53958,1.66818 9.21588,4.46722 12.75546,6.26889 3.53959,1.80164 9.21587,4.79956 12.75545,6.71627 3.53958,1.91671 9.21588,5.08547 12.75546,7.09804 3.5396,2.01258 9.21587,5.31897 12.75545,7.40727 3.5396,2.08832 9.21588,5.50148 12.75546,7.64383 3.5396,2.14235 9.21587,5.62288 12.75547,7.79688 3.53958,2.17398 9.21586,5.68786 12.75546,7.87182 3.53958,2.18396 9.21587,5.69645 12.75546,7.8687 3.53959,2.17224 9.21587,5.64948 12.75545,7.78749 3.53958,2.13804 9.21588,5.54027 12.75546,7.62198 3.53958,2.0817 9.21587,5.37671 12.75545,7.38149 3.53958,2.00477 9.21588,5.16066 12.75546,7.06761 3.53958,1.90695 9.21587,4.88692 12.75545,6.67645 3.53958,1.78952 9.21588,4.56725 12.75548,6.22125 3.53959,1.65401 9.21589,4.19812 12.75548,5.6997 3.53958,1.50157 9.21588,3.78848 12.75546,5.12268 3.53958,1.33421 9.21588,3.34031 12.75546,4.49339 3.53958,1.15308 9.21587,2.85731 12.75545,3.81723 3.53958,0.95992 9.21588,2.34404 12.75548,3.10127 3.53959,0.75722 9.21588,1.80954 12.75547,2.35639 3.5396,0.54686 9.21589,1.25413 12.75548,1.58497 3.5396,0.33084 9.2159,0.68796 12.75548,0.79952 3.53958,0.11157 9.21588,0.114 12.75546,0.005 3.53958,-0.1093 9.21588,-0.46382 12.75548,-0.79249 3.5396,-0.32866 9.21588,-1.03191 12.75548,-1.57639 3.5396,-0.54446 9.2159,-1.59273 12.75548,-2.34781 3.53958,-0.75506 9.21588,-2.13614 12.75546,-3.09422 3.53958,-0.95807 9.21588,-2.65964 12.75546,-3.81098 3.53958,-1.15133 9.21588,-3.15468 12.75548,-4.48713 3.5396,-1.33248 9.21588,-3.61662 12.75548,-5.11645 3.5396,-1.49985 9.21588,-4.04098 12.75548,-5.69346 3.53959,-1.65248 9.21588,-4.42813 12.75547,-6.21657 3.53962,-1.78843 9.2159,-4.76735 12.75548,-6.67332 3.5396,-1.90598 9.21587,-5.06012 12.75545,-7.06371 3.5396,-2.00358 9.21588,-5.29586 12.75548,-7.3768 3.53958,-2.08094 9.21584,-5.48349 12.75544,-7.6212 3.53959,-2.13769 9.21587,-5.61389 12.75547,-7.78593 3.53958,-2.17204 9.21586,-5.68475 12.75544,-7.86871 3.53959,-2.18396 9.21589,-5.6974 12.75547,-7.87182 3.53958,-2.17442 9.21588,-5.65719 12.75546,-7.8 3.53958,-2.14279 9.21586,-5.55507 12.75545,-7.64381 3.53958,-2.08873 9.21588,-5.39672 12.75546,-7.41039 3.53958,-2.01367 9.21587,-5.18497 12.75545,-7.10275 3.53958,-1.91779 9.21588,-4.91664 12.75546,-6.71938 3.53958,-1.80275 9.21587,-4.60408 12.75544,-6.27357 3.53959,-1.6695 9.21589,-4.24075 12.75547,-5.75903 3.53958,-1.51827 9.21588,-3.83162 12.75546,-5.1836 3.53958,-1.35197 9.21587,-3.38786 12.75545,-4.56055 3.53958,-1.17268 9.21588,-2.91035 12.75546,-3.8914 3.53958,-0.98105 9.21587,-2.40031 12.75545,-3.17932 3.53958,-0.77902 9.21588,-1.86621 12.75546,-2.43527 3.53958,-0.56906 9.21587,-1.31268 12.75545,-1.66617 3.53958,-0.35347 9.21588,-0.74696 12.75546,-0.8815 3.53958,-0.13454 9.21588,-0.17401 12.75546,-0.0882 3.53958,0.0858 9.21587,0.40111 12.75545,0.70661 3.53958,0.30548 9.21588,0.97281 12.75546,1.49518 3.53959,0.52237 9.21587,1.5359 12.75545,2.26973 3.53958,0.73384 9.21588,2.08219 12.75546,3.01927 3.5396,0.93707 9.21587,2.6035 12.75545,3.73448 3.5396,1.13098 9.21588,3.10269 12.75546,4.41687 3.5396,1.31416 9.21589,3.57138 12.75548,5.05476 3.53958,1.48337 9.21585,3.99915 12.75545,5.63646 3.53958,1.63732 9.21587,4.38967 12.75546,6.16425 3.53958,1.77456 9.21587,4.73153 12.75545,6.6257 3.53958,1.89416 9.21588,5.03165 12.75546,7.02623 3.53958,1.9946 9.21587,5.27527 12.75545,7.34949 3.53958,2.07422 9.21588,5.4676 12.75546,7.60011 3.53958,2.13249 9.21588,5.6003 12.75547,7.76953 3.53957,2.16924 9.21586,5.68085 12.75544,7.86481 3.53958,2.18396 9.21588,5.69923 12.75547,7.87571 3.53958,2.17649 9.21586,5.66402 12.75544,7.81093 3.53958,2.14692 12.75547,7.66256 12.75547,7.66256"
                                   style="fill:none;stroke:#ff0000;stroke-width:1.59404004;stroke-linecap:butt;stroke-linejoin:miter;stroke-miterlimit:10;stroke-dasharray:none;stroke-opacity:1"
                                   id="path478"
                                   inkscape:connector-curvature="0" /></g></g></g><g
                             id="g480"><g
                               id="g482"><g
                                 id="g484"
                                 transform="scale(-1,-1)"><g
                                   id="g486" /><g
                                   id="g488"
                                   transform="matrix(-1,0,0,-1,-68.31,-294.7)"><g
                                   id="g490" /><g
                                   id="g492"
                                   transform="translate(493.59,189.93)"><text
                                   transform="matrix(1,0,0,-1,-68.31,-294.7)"
                                   style="font-style:italic;font-variant:normal;font-size:20.66300011px;font-family:'Times New Roman';-inkscape-font-specification:TimesNewRomanPS-ItalicMT;writing-mode:lr-tb;fill:#000000;fill-opacity:1;fill-rule:nonzero;stroke:none"
                                   id="text494"><tspan
                                   x="0"
                                   y="0"
                                   id="tspan496">t</tspan></text>
</g><g
                                   id="g498"
                                   transform="translate(-68.31,-294.7)" /></g></g></g></g><g
                             id="g500"><g
                               id="g502"><g
                                 id="g504"
                                 transform="scale(-1,-1)"><g
                                   id="g506" /><g
                                   id="g508"
                                   transform="matrix(-1,0,0,-1,-68.31,-294.7)"><g
                                   id="g510" /><g
                                   id="g512"
                                   transform="translate(69.1,352.45)"><text
                                   transform="matrix(1,0,0,-1,-68.31,-294.7)"
                                   style="font-style:italic;font-variant:normal;font-size:20.66300011px;font-family:'Times New Roman';-inkscape-font-specification:TimesNewRomanPS-ItalicMT;writing-mode:lr-tb;fill:#000000;fill-opacity:1;fill-rule:nonzero;stroke:none"
                                   id="text514"><tspan
                                   x="0"
                                   y="0"
                                   id="tspan516">v</tspan></text>
</g><g
                                   id="g518"
                                   transform="translate(-68.31,-294.7)" /></g></g></g></g></g></g></g></g><g
                     id="g520"
                     transform="translate(-68.91,-306.98)" /></g></g></g><g
               id="g522" /><g
               id="g524" /></g></g></g></g></g></svg>