<?xml version="1.0" encoding="UTF-8" standalone="no"?>
<!-- Created with Inkscape (http://www.inkscape.org/) -->

<svg
   xmlns:dc="http://purl.org/dc/elements/1.1/"
   xmlns:cc="http://creativecommons.org/ns#"
   xmlns:rdf="http://www.w3.org/1999/02/22-rdf-syntax-ns#"
   xmlns:svg="http://www.w3.org/2000/svg"
   xmlns="http://www.w3.org/2000/svg"
   xmlns:sodipodi="http://sodipodi.sourceforge.net/DTD/sodipodi-0.dtd"
   xmlns:inkscape="http://www.inkscape.org/namespaces/inkscape"
   id="svg2"
   version="1.1"
   inkscape:version="0.91 r13725"
   xml:space="preserve"
   width="636.0625"
   height="460.77499"
   viewBox="0 0 636.0625 460.77499"
   sodipodi:docname="TangentLine_Background.svg"><metadata
     id="metadata8"><rdf:RDF><cc:Work
         rdf:about=""><dc:format>image/svg+xml</dc:format><dc:type
           rdf:resource="http://purl.org/dc/dcmitype/StillImage" /><dc:title></dc:title></cc:Work></rdf:RDF></metadata><defs
     id="defs6"><clipPath
       clipPathUnits="userSpaceOnUse"
       id="clipPath70"><path
         d="m 0,-141.73465 505.17192,0 0,650.89899 -505.17192,0"
         id="path72"
         inkscape:connector-curvature="0" /></clipPath><clipPath
       clipPathUnits="userSpaceOnUse"
       id="clipPath82"><path
         d="m -141.74225,0 0,367.42969 788.65643,0 0,-367.42969"
         id="path84"
         inkscape:connector-curvature="0" /></clipPath><clipPath
       clipPathUnits="userSpaceOnUse"
       id="clipPath94"><path
         d="m 0,-141.73465 505.17192,0 0,650.89899 -505.17192,0"
         id="path96"
         inkscape:connector-curvature="0" /></clipPath><clipPath
       clipPathUnits="userSpaceOnUse"
       id="clipPath106"><path
         d="m -141.74225,0 0,367.42969 788.65643,0 0,-367.42969"
         id="path108"
         inkscape:connector-curvature="0" /></clipPath><clipPath
       clipPathUnits="userSpaceOnUse"
       id="clipPath576"><path
         d="m 0,0 505.17192,0 0,367.42969 L 0,367.42969 0,0 Z"
         id="path578"
         inkscape:connector-curvature="0" /></clipPath></defs><sodipodi:namedview
     pagecolor="#ffffff"
     bordercolor="#666666"
     borderopacity="1"
     objecttolerance="10"
     gridtolerance="10"
     guidetolerance="10"
     inkscape:pageopacity="0"
     inkscape:pageshadow="2"
     inkscape:window-width="660"
     inkscape:window-height="480"
     id="namedview4"
     showgrid="false"
     inkscape:zoom="0.51218057"
     inkscape:cx="318.03125"
     inkscape:cy="230.3875"
     inkscape:window-x="0"
     inkscape:window-y="0"
     inkscape:window-maximized="0"
     inkscape:current-layer="g10" /><g
     id="g10"
     inkscape:groupmode="layer"
     inkscape:label="TangentLine_Background"
     transform="matrix(1.25,0,0,-1.25,0,460.775)"><g
       id="g12"
       transform="translate(72,296.62)"><g
         id="g14"
         transform="translate(-68.91,-296.02)"><g
           id="g16"><g
             id="g18"><g
               id="g20" /><g
               id="g22" /><g
               id="g24"><g
                 id="g26"
                 transform="scale(-1,-1)"><g
                   id="g28" /><g
                   id="g30"
                   transform="matrix(-1,0,0,-1,-68.91,-296.02)"><g
                     id="g32" /><g
                     id="g34" /><g
                     id="g36"
                     transform="translate(-68.91,-296.02)" /></g></g></g><g
               id="g38" /><g
               id="g40" /><g
               id="g42" /><g
               id="g44" /><g
               id="g46"><g
                 id="g48"
                 transform="scale(-1,-1)"><g
                   id="g50" /><g
                   id="g52"
                   transform="matrix(-1,0,0,-1,-68.91,-296.02)"><g
                     id="g54" /><g
                     id="g56"
                     transform="translate(-0.6,-0.6)"><g
                       id="g58"
                       transform="translate(-68.31,-295.42)"><g
                         id="g60"><g
                           id="g62"><g
                             id="g64"><g
                               id="g66"><g
                                 id="g68"
                                 clip-path="url(#clipPath70)"><g
                                   id="g74"><path
                                   d="m 22.96236,0 0,367.42969 M 68.88707,0 l 0,367.42969 M 114.8118,0 l 0,367.42969 M 160.73651,0 l 0,367.42969 M 206.66124,0 l 0,367.42969 M 298.51068,0 l 0,367.42969 M 344.4354,0 l 0,367.42969 M 390.36012,0 l 0,367.42969 M 436.28484,0 l 0,367.42969 M 482.20956,0 l 0,367.42969"
                                   style="fill:none;stroke:#bfbfbf;stroke-width:1.19553006;stroke-linecap:butt;stroke-linejoin:miter;stroke-miterlimit:10;stroke-dasharray:none;stroke-opacity:1"
                                   id="path76"
                                   inkscape:connector-curvature="0" /></g></g></g><g
                               id="g78"><g
                                 id="g80"
                                 clip-path="url(#clipPath82)"><g
                                   id="g86"><path
                                   d="m 0,16.70134 505.17192,0 M 0,50.10403 l 505.17192,0 M 0,83.50674 l 505.17192,0 M 0,116.90944 l 505.17192,0 M 0,150.31213 l 505.17192,0 M 0,217.11754 l 505.17192,0 M 0,250.52023 l 505.17192,0 M 0,283.92293 l 505.17192,0 M 0,317.32564 l 505.17192,0 M 0,350.72833 l 505.17192,0"
                                   style="fill:none;stroke:#bfbfbf;stroke-width:1.19553006;stroke-linecap:butt;stroke-linejoin:miter;stroke-miterlimit:10;stroke-dasharray:none;stroke-opacity:1"
                                   id="path88"
                                   inkscape:connector-curvature="0" /></g></g></g><g
                               id="g90"><g
                                 id="g92"
                                 clip-path="url(#clipPath94)"><g
                                   id="g98"><path
                                   d="m 22.96236,181.58893 0,4.2518 m 45.92471,-4.2518 0,4.2518 m 45.92473,-4.2518 0,4.2518 m 45.92471,-4.2518 0,4.2518 m 45.92473,-4.2518 0,4.2518 m 91.84944,-4.2518 0,4.2518 m 45.92472,-4.2518 0,4.2518 m 45.92472,-4.2518 0,4.2518 m 45.92472,-4.2518 0,4.2518 m 45.92472,-4.2518 0,4.2518"
                                   style="fill:none;stroke:#808080;stroke-width:0.19925;stroke-linecap:butt;stroke-linejoin:miter;stroke-miterlimit:10;stroke-dasharray:none;stroke-opacity:1"
                                   id="path100"
                                   inkscape:connector-curvature="0" /></g></g></g><g
                               id="g102"><g
                                 id="g104"
                                 clip-path="url(#clipPath106)"><g
                                   id="g110"><path
                                   d="m 250.45993,16.70134 4.25205,0 m -4.25205,33.40269 4.25205,0 m -4.25205,33.40271 4.25205,0 m -4.25205,33.4027 4.25205,0 m -4.25205,33.40269 4.25205,0 m -4.25205,66.80541 4.25205,0 m -4.25205,33.40269 4.25205,0 m -4.25205,33.4027 4.25205,0 m -4.25205,33.40271 4.25205,0 m -4.25205,33.40269 4.25205,0"
                                   style="fill:none;stroke:#808080;stroke-width:0.19925;stroke-linecap:butt;stroke-linejoin:miter;stroke-miterlimit:10;stroke-dasharray:none;stroke-opacity:1"
                                   id="path112"
                                   inkscape:connector-curvature="0" /></g></g></g><g
                               id="g114"><path
                                 d="m 0,183.71484 501.98384,0"
                                 style="fill:none;stroke:#000000;stroke-width:1.19553006;stroke-linecap:butt;stroke-linejoin:miter;stroke-miterlimit:10;stroke-dasharray:none;stroke-opacity:1"
                                 id="path116"
                                 inkscape:connector-curvature="0" /><g
                                 id="g118"
                                 transform="translate(501.98384,183.71484)"><g
                                   id="g120"><path
                                   d="M 3.18808,0 -1.91284,2.55046 0,0 -1.91284,-2.55046"
                                   style="fill:#000000;fill-opacity:1;fill-rule:nonzero;stroke:none"
                                   id="path122"
                                   inkscape:connector-curvature="0" /></g></g></g><g
                               id="g124"><path
                                 d="m 252.58595,0 0,364.2416"
                                 style="fill:none;stroke:#000000;stroke-width:1.19553006;stroke-linecap:butt;stroke-linejoin:miter;stroke-miterlimit:10;stroke-dasharray:none;stroke-opacity:1"
                                 id="path126"
                                 inkscape:connector-curvature="0" /><g
                                 id="g128"
                                 transform="matrix(0,1,-1,0,252.58595,364.2416)"><g
                                   id="g130"><path
                                   d="M 3.18808,0 -1.91284,2.55046 0,0 -1.91284,-2.55046"
                                   style="fill:#000000;fill-opacity:1;fill-rule:nonzero;stroke:none"
                                   id="path132"
                                   inkscape:connector-curvature="0" /></g></g></g><g
                               id="g134"><g
                                 id="g136"><g
                                   id="g138"
                                   transform="scale(-1,-1)"><g
                                   id="g140" /><g
                                   id="g142"
                                   transform="matrix(-1,0,0,-1,-68.31,-295.42)"><g
                                   id="g144" /><g
                                   id="g146"
                                   transform="translate(11.96,164.25)"><text
                                   transform="matrix(1,0,0,-1,-68.31,-295.42)"
                                   style="font-style:italic;font-variant:normal;font-weight:normal;font-size:17.21500015px;font-family:CMSY10;-inkscape-font-specification:CMSY10;writing-mode:lr-tb;fill:#000000;fill-opacity:1;fill-rule:nonzero;stroke:none"
                                   id="text148"><tspan
                                   x="0"
                                   y="0"
                                   id="tspan150">−</tspan></text>
<text
                                   transform="matrix(1,0,0,-1,-54.92,-295.42)"
                                   style="font-variant:normal;font-weight:normal;font-size:17.21500015px;font-family:'Times New Roman';-inkscape-font-specification:TimesNewRomanPSMT;writing-mode:lr-tb;fill:#000000;fill-opacity:1;fill-rule:nonzero;stroke:none"
                                   id="text152"><tspan
                                   x="0"
                                   y="0"
                                   id="tspan154">5</tspan></text>
</g><g
                                   id="g156"
                                   transform="translate(-68.31,-295.42)" /></g></g></g></g><g
                               id="g158"><g
                                 id="g160"><g
                                   id="g162"
                                   transform="scale(-1,-1)"><g
                                   id="g164" /><g
                                   id="g166"
                                   transform="matrix(-1,0,0,-1,-68.31,-295.42)"><g
                                   id="g168" /><g
                                   id="g170"
                                   transform="translate(57.89,164.02)"><text
                                   transform="matrix(1,0,0,-1,-68.31,-295.42)"
                                   style="font-style:italic;font-variant:normal;font-weight:normal;font-size:17.21500015px;font-family:CMSY10;-inkscape-font-specification:CMSY10;writing-mode:lr-tb;fill:#000000;fill-opacity:1;fill-rule:nonzero;stroke:none"
                                   id="text172"><tspan
                                   x="0"
                                   y="0"
                                   id="tspan174">−</tspan></text>
<text
                                   transform="matrix(1,0,0,-1,-54.92,-295.42)"
                                   style="font-variant:normal;font-weight:normal;font-size:17.21500015px;font-family:'Times New Roman';-inkscape-font-specification:TimesNewRomanPSMT;writing-mode:lr-tb;fill:#000000;fill-opacity:1;fill-rule:nonzero;stroke:none"
                                   id="text176"><tspan
                                   x="0"
                                   y="0"
                                   id="tspan178">4</tspan></text>
</g><g
                                   id="g180"
                                   transform="translate(-68.31,-295.42)" /></g></g></g></g><g
                               id="g182"><g
                                 id="g184"><g
                                   id="g186"
                                   transform="scale(-1,-1)"><g
                                   id="g188" /><g
                                   id="g190"
                                   transform="matrix(-1,0,0,-1,-68.31,-295.42)"><g
                                   id="g192" /><g
                                   id="g194"
                                   transform="translate(103.81,164.02)"><text
                                   transform="matrix(1,0,0,-1,-68.31,-295.42)"
                                   style="font-style:italic;font-variant:normal;font-weight:normal;font-size:17.21500015px;font-family:CMSY10;-inkscape-font-specification:CMSY10;writing-mode:lr-tb;fill:#000000;fill-opacity:1;fill-rule:nonzero;stroke:none"
                                   id="text196"><tspan
                                   x="0"
                                   y="0"
                                   id="tspan198">−</tspan></text>
<text
                                   transform="matrix(1,0,0,-1,-54.92,-295.42)"
                                   style="font-variant:normal;font-weight:normal;font-size:17.21500015px;font-family:'Times New Roman';-inkscape-font-specification:TimesNewRomanPSMT;writing-mode:lr-tb;fill:#000000;fill-opacity:1;fill-rule:nonzero;stroke:none"
                                   id="text200"><tspan
                                   x="0"
                                   y="0"
                                   id="tspan202">3</tspan></text>
</g><g
                                   id="g204"
                                   transform="translate(-68.31,-295.42)" /></g></g></g></g><g
                               id="g206"><g
                                 id="g208"><g
                                   id="g210"
                                   transform="scale(-1,-1)"><g
                                   id="g212" /><g
                                   id="g214"
                                   transform="matrix(-1,0,0,-1,-68.31,-295.42)"><g
                                   id="g216" /><g
                                   id="g218"
                                   transform="translate(149.74,164.02)"><text
                                   transform="matrix(1,0,0,-1,-68.31,-295.42)"
                                   style="font-style:italic;font-variant:normal;font-weight:normal;font-size:17.21500015px;font-family:CMSY10;-inkscape-font-specification:CMSY10;writing-mode:lr-tb;fill:#000000;fill-opacity:1;fill-rule:nonzero;stroke:none"
                                   id="text220"><tspan
                                   x="0"
                                   y="0"
                                   id="tspan222">−</tspan></text>
<text
                                   transform="matrix(1,0,0,-1,-54.92,-295.42)"
                                   style="font-variant:normal;font-weight:normal;font-size:17.21500015px;font-family:'Times New Roman';-inkscape-font-specification:TimesNewRomanPSMT;writing-mode:lr-tb;fill:#000000;fill-opacity:1;fill-rule:nonzero;stroke:none"
                                   id="text224"><tspan
                                   x="0"
                                   y="0"
                                   id="tspan226">2</tspan></text>
</g><g
                                   id="g228"
                                   transform="translate(-68.31,-295.42)" /></g></g></g></g><g
                               id="g230"><g
                                 id="g232"><g
                                   id="g234"
                                   transform="scale(-1,-1)"><g
                                   id="g236" /><g
                                   id="g238"
                                   transform="matrix(-1,0,0,-1,-68.31,-295.42)"><g
                                   id="g240" /><g
                                   id="g242"
                                   transform="translate(195.66,164.02)"><text
                                   transform="matrix(1,0,0,-1,-68.31,-295.42)"
                                   style="font-style:italic;font-variant:normal;font-weight:normal;font-size:17.21500015px;font-family:CMSY10;-inkscape-font-specification:CMSY10;writing-mode:lr-tb;fill:#000000;fill-opacity:1;fill-rule:nonzero;stroke:none"
                                   id="text244"><tspan
                                   x="0"
                                   y="0"
                                   id="tspan246">−</tspan></text>
<text
                                   transform="matrix(1,0,0,-1,-54.92,-295.42)"
                                   style="font-variant:normal;font-weight:normal;font-size:17.21500015px;font-family:'Times New Roman';-inkscape-font-specification:TimesNewRomanPSMT;writing-mode:lr-tb;fill:#000000;fill-opacity:1;fill-rule:nonzero;stroke:none"
                                   id="text248"><tspan
                                   x="0"
                                   y="0"
                                   id="tspan250">1</tspan></text>
</g><g
                                   id="g252"
                                   transform="translate(-68.31,-295.42)" /></g></g></g></g><g
                               id="g254"><g
                                 id="g256"><g
                                   id="g258"
                                   transform="scale(-1,-1)"><g
                                   id="g260" /><g
                                   id="g262"
                                   transform="matrix(-1,0,0,-1,-68.31,-295.42)"><g
                                   id="g264" /><g
                                   id="g266"
                                   transform="translate(294.21,164.02)"><text
                                   transform="matrix(1,0,0,-1,-68.31,-295.42)"
                                   style="font-variant:normal;font-weight:normal;font-size:17.21500015px;font-family:'Times New Roman';-inkscape-font-specification:TimesNewRomanPSMT;writing-mode:lr-tb;fill:#000000;fill-opacity:1;fill-rule:nonzero;stroke:none"
                                   id="text268"><tspan
                                   x="0"
                                   y="0"
                                   id="tspan270">1</tspan></text>
</g><g
                                   id="g272"
                                   transform="translate(-68.31,-295.42)" /></g></g></g></g><g
                               id="g274"><g
                                 id="g276"><g
                                   id="g278"
                                   transform="scale(-1,-1)"><g
                                   id="g280" /><g
                                   id="g282"
                                   transform="matrix(-1,0,0,-1,-68.31,-295.42)"><g
                                   id="g284" /><g
                                   id="g286"
                                   transform="translate(340.13,164.02)"><text
                                   transform="matrix(1,0,0,-1,-68.31,-295.42)"
                                   style="font-variant:normal;font-weight:normal;font-size:17.21500015px;font-family:'Times New Roman';-inkscape-font-specification:TimesNewRomanPSMT;writing-mode:lr-tb;fill:#000000;fill-opacity:1;fill-rule:nonzero;stroke:none"
                                   id="text288"><tspan
                                   x="0"
                                   y="0"
                                   id="tspan290">2</tspan></text>
</g><g
                                   id="g292"
                                   transform="translate(-68.31,-295.42)" /></g></g></g></g><g
                               id="g294"><g
                                 id="g296"><g
                                   id="g298"
                                   transform="scale(-1,-1)"><g
                                   id="g300" /><g
                                   id="g302"
                                   transform="matrix(-1,0,0,-1,-68.31,-295.42)"><g
                                   id="g304" /><g
                                   id="g306"
                                   transform="translate(386.06,164.02)"><text
                                   transform="matrix(1,0,0,-1,-68.31,-295.42)"
                                   style="font-variant:normal;font-weight:normal;font-size:17.21500015px;font-family:'Times New Roman';-inkscape-font-specification:TimesNewRomanPSMT;writing-mode:lr-tb;fill:#000000;fill-opacity:1;fill-rule:nonzero;stroke:none"
                                   id="text308"><tspan
                                   x="0"
                                   y="0"
                                   id="tspan310">3</tspan></text>
</g><g
                                   id="g312"
                                   transform="translate(-68.31,-295.42)" /></g></g></g></g><g
                               id="g314"><g
                                 id="g316"><g
                                   id="g318"
                                   transform="scale(-1,-1)"><g
                                   id="g320" /><g
                                   id="g322"
                                   transform="matrix(-1,0,0,-1,-68.31,-295.42)"><g
                                   id="g324" /><g
                                   id="g326"
                                   transform="translate(431.98,164.02)"><text
                                   transform="matrix(1,0,0,-1,-68.31,-295.42)"
                                   style="font-variant:normal;font-weight:normal;font-size:17.21500015px;font-family:'Times New Roman';-inkscape-font-specification:TimesNewRomanPSMT;writing-mode:lr-tb;fill:#000000;fill-opacity:1;fill-rule:nonzero;stroke:none"
                                   id="text328"><tspan
                                   x="0"
                                   y="0"
                                   id="tspan330">4</tspan></text>
</g><g
                                   id="g332"
                                   transform="translate(-68.31,-295.42)" /></g></g></g></g><g
                               id="g334"><g
                                 id="g336"><g
                                   id="g338"
                                   transform="scale(-1,-1)"><g
                                   id="g340" /><g
                                   id="g342"
                                   transform="matrix(-1,0,0,-1,-68.31,-295.42)"><g
                                   id="g344" /><g
                                   id="g346"
                                   transform="translate(477.91,164.25)"><text
                                   transform="matrix(1,0,0,-1,-68.31,-295.42)"
                                   style="font-variant:normal;font-weight:normal;font-size:17.21500015px;font-family:'Times New Roman';-inkscape-font-specification:TimesNewRomanPSMT;writing-mode:lr-tb;fill:#000000;fill-opacity:1;fill-rule:nonzero;stroke:none"
                                   id="text348"><tspan
                                   x="0"
                                   y="0"
                                   id="tspan350">5</tspan></text>
</g><g
                                   id="g352"
                                   transform="translate(-68.31,-295.42)" /></g></g></g></g><g
                               id="g354"><g
                                 id="g356"><g
                                   id="g358"
                                   transform="scale(-1,-1)"><g
                                   id="g360" /><g
                                   id="g362"
                                   transform="matrix(-1,0,0,-1,-68.31,-295.42)"><g
                                   id="g364" /><g
                                   id="g366"
                                   transform="translate(222.52,11.72)"><text
                                   transform="matrix(1,0,0,-1,-68.31,-295.42)"
                                   style="font-style:italic;font-variant:normal;font-weight:normal;font-size:17.21500015px;font-family:CMSY10;-inkscape-font-specification:CMSY10;writing-mode:lr-tb;fill:#000000;fill-opacity:1;fill-rule:nonzero;stroke:none"
                                   id="text368"><tspan
                                   x="0"
                                   y="0"
                                   id="tspan370">−</tspan></text>
<text
                                   transform="matrix(1,0,0,-1,-54.92,-295.42)"
                                   style="font-variant:normal;font-weight:normal;font-size:17.21500015px;font-family:'Times New Roman';-inkscape-font-specification:TimesNewRomanPSMT;writing-mode:lr-tb;fill:#000000;fill-opacity:1;fill-rule:nonzero;stroke:none"
                                   id="text372"><tspan
                                   x="0"
                                   y="0"
                                   id="tspan374">5</tspan></text>
</g><g
                                   id="g376"
                                   transform="translate(-68.31,-295.42)" /></g></g></g></g><g
                               id="g378"><g
                                 id="g380"><g
                                   id="g382"
                                   transform="scale(-1,-1)"><g
                                   id="g384" /><g
                                   id="g386"
                                   transform="matrix(-1,0,0,-1,-68.31,-295.42)"><g
                                   id="g388" /><g
                                   id="g390"
                                   transform="translate(222.52,45)"><text
                                   transform="matrix(1,0,0,-1,-68.31,-295.42)"
                                   style="font-style:italic;font-variant:normal;font-weight:normal;font-size:17.21500015px;font-family:CMSY10;-inkscape-font-specification:CMSY10;writing-mode:lr-tb;fill:#000000;fill-opacity:1;fill-rule:nonzero;stroke:none"
                                   id="text392"><tspan
                                   x="0"
                                   y="0"
                                   id="tspan394">−</tspan></text>
<text
                                   transform="matrix(1,0,0,-1,-54.92,-295.42)"
                                   style="font-variant:normal;font-weight:normal;font-size:17.21500015px;font-family:'Times New Roman';-inkscape-font-specification:TimesNewRomanPSMT;writing-mode:lr-tb;fill:#000000;fill-opacity:1;fill-rule:nonzero;stroke:none"
                                   id="text396"><tspan
                                   x="0"
                                   y="0"
                                   id="tspan398">4</tspan></text>
</g><g
                                   id="g400"
                                   transform="translate(-68.31,-295.42)" /></g></g></g></g><g
                               id="g402"><g
                                 id="g404"><g
                                   id="g406"
                                   transform="scale(-1,-1)"><g
                                   id="g408" /><g
                                   id="g410"
                                   transform="matrix(-1,0,0,-1,-68.31,-295.42)"><g
                                   id="g412" /><g
                                   id="g414"
                                   transform="translate(222.52,78.41)"><text
                                   transform="matrix(1,0,0,-1,-68.31,-295.42)"
                                   style="font-style:italic;font-variant:normal;font-weight:normal;font-size:17.21500015px;font-family:CMSY10;-inkscape-font-specification:CMSY10;writing-mode:lr-tb;fill:#000000;fill-opacity:1;fill-rule:nonzero;stroke:none"
                                   id="text416"><tspan
                                   x="0"
                                   y="0"
                                   id="tspan418">−</tspan></text>
<text
                                   transform="matrix(1,0,0,-1,-54.92,-295.42)"
                                   style="font-variant:normal;font-weight:normal;font-size:17.21500015px;font-family:'Times New Roman';-inkscape-font-specification:TimesNewRomanPSMT;writing-mode:lr-tb;fill:#000000;fill-opacity:1;fill-rule:nonzero;stroke:none"
                                   id="text420"><tspan
                                   x="0"
                                   y="0"
                                   id="tspan422">3</tspan></text>
</g><g
                                   id="g424"
                                   transform="translate(-68.31,-295.42)" /></g></g></g></g><g
                               id="g426"><g
                                 id="g428"><g
                                   id="g430"
                                   transform="scale(-1,-1)"><g
                                   id="g432" /><g
                                   id="g434"
                                   transform="matrix(-1,0,0,-1,-68.31,-295.42)"><g
                                   id="g436" /><g
                                   id="g438"
                                   transform="translate(222.52,111.81)"><text
                                   transform="matrix(1,0,0,-1,-68.31,-295.42)"
                                   style="font-style:italic;font-variant:normal;font-weight:normal;font-size:17.21500015px;font-family:CMSY10;-inkscape-font-specification:CMSY10;writing-mode:lr-tb;fill:#000000;fill-opacity:1;fill-rule:nonzero;stroke:none"
                                   id="text440"><tspan
                                   x="0"
                                   y="0"
                                   id="tspan442">−</tspan></text>
<text
                                   transform="matrix(1,0,0,-1,-54.92,-295.42)"
                                   style="font-variant:normal;font-weight:normal;font-size:17.21500015px;font-family:'Times New Roman';-inkscape-font-specification:TimesNewRomanPSMT;writing-mode:lr-tb;fill:#000000;fill-opacity:1;fill-rule:nonzero;stroke:none"
                                   id="text444"><tspan
                                   x="0"
                                   y="0"
                                   id="tspan446">2</tspan></text>
</g><g
                                   id="g448"
                                   transform="translate(-68.31,-295.42)" /></g></g></g></g><g
                               id="g450"><g
                                 id="g452"><g
                                   id="g454"
                                   transform="scale(-1,-1)"><g
                                   id="g456" /><g
                                   id="g458"
                                   transform="matrix(-1,0,0,-1,-68.31,-295.42)"><g
                                   id="g460" /><g
                                   id="g462"
                                   transform="translate(222.52,145.21)"><text
                                   transform="matrix(1,0,0,-1,-68.31,-295.42)"
                                   style="font-style:italic;font-variant:normal;font-weight:normal;font-size:17.21500015px;font-family:CMSY10;-inkscape-font-specification:CMSY10;writing-mode:lr-tb;fill:#000000;fill-opacity:1;fill-rule:nonzero;stroke:none"
                                   id="text464"><tspan
                                   x="0"
                                   y="0"
                                   id="tspan466">−</tspan></text>
<text
                                   transform="matrix(1,0,0,-1,-54.92,-295.42)"
                                   style="font-variant:normal;font-weight:normal;font-size:17.21500015px;font-family:'Times New Roman';-inkscape-font-specification:TimesNewRomanPSMT;writing-mode:lr-tb;fill:#000000;fill-opacity:1;fill-rule:nonzero;stroke:none"
                                   id="text468"><tspan
                                   x="0"
                                   y="0"
                                   id="tspan470">1</tspan></text>
</g><g
                                   id="g472"
                                   transform="translate(-68.31,-295.42)" /></g></g></g></g><g
                               id="g474"><g
                                 id="g476"><g
                                   id="g478"
                                   transform="scale(-1,-1)"><g
                                   id="g480" /><g
                                   id="g482"
                                   transform="matrix(-1,0,0,-1,-68.31,-295.42)"><g
                                   id="g484" /><g
                                   id="g486"
                                   transform="translate(235.91,211.3)"><text
                                   transform="matrix(1,0,0,-1,-68.31,-295.42)"
                                   style="font-variant:normal;font-weight:normal;font-size:17.21500015px;font-family:'Times New Roman';-inkscape-font-specification:TimesNewRomanPSMT;writing-mode:lr-tb;fill:#000000;fill-opacity:1;fill-rule:nonzero;stroke:none"
                                   id="text488"><tspan
                                   x="0"
                                   y="0"
                                   id="tspan490">1</tspan></text>
</g><g
                                   id="g492"
                                   transform="translate(-68.31,-295.42)" /></g></g></g></g><g
                               id="g494"><g
                                 id="g496"><g
                                   id="g498"
                                   transform="scale(-1,-1)"><g
                                   id="g500" /><g
                                   id="g502"
                                   transform="matrix(-1,0,0,-1,-68.31,-295.42)"><g
                                   id="g504" /><g
                                   id="g506"
                                   transform="translate(235.91,244.7)"><text
                                   transform="matrix(1,0,0,-1,-68.31,-295.42)"
                                   style="font-variant:normal;font-weight:normal;font-size:17.21500015px;font-family:'Times New Roman';-inkscape-font-specification:TimesNewRomanPSMT;writing-mode:lr-tb;fill:#000000;fill-opacity:1;fill-rule:nonzero;stroke:none"
                                   id="text508"><tspan
                                   x="0"
                                   y="0"
                                   id="tspan510">2</tspan></text>
</g><g
                                   id="g512"
                                   transform="translate(-68.31,-295.42)" /></g></g></g></g><g
                               id="g514"><g
                                 id="g516"><g
                                   id="g518"
                                   transform="scale(-1,-1)"><g
                                   id="g520" /><g
                                   id="g522"
                                   transform="matrix(-1,0,0,-1,-68.31,-295.42)"><g
                                   id="g524" /><g
                                   id="g526"
                                   transform="translate(235.91,278.21)"><text
                                   transform="matrix(1,0,0,-1,-68.31,-295.42)"
                                   style="font-variant:normal;font-weight:normal;font-size:17.21500015px;font-family:'Times New Roman';-inkscape-font-specification:TimesNewRomanPSMT;writing-mode:lr-tb;fill:#000000;fill-opacity:1;fill-rule:nonzero;stroke:none"
                                   id="text528"><tspan
                                   x="0"
                                   y="0"
                                   id="tspan530">3</tspan></text>
</g><g
                                   id="g532"
                                   transform="translate(-68.31,-295.42)" /></g></g></g></g><g
                               id="g534"><g
                                 id="g536"><g
                                   id="g538"
                                   transform="scale(-1,-1)"><g
                                   id="g540" /><g
                                   id="g542"
                                   transform="matrix(-1,0,0,-1,-68.31,-295.42)"><g
                                   id="g544" /><g
                                   id="g546"
                                   transform="translate(235.91,311.51)"><text
                                   transform="matrix(1,0,0,-1,-68.31,-295.42)"
                                   style="font-variant:normal;font-weight:normal;font-size:17.21500015px;font-family:'Times New Roman';-inkscape-font-specification:TimesNewRomanPSMT;writing-mode:lr-tb;fill:#000000;fill-opacity:1;fill-rule:nonzero;stroke:none"
                                   id="text548"><tspan
                                   x="0"
                                   y="0"
                                   id="tspan550">4</tspan></text>
</g><g
                                   id="g552"
                                   transform="translate(-68.31,-295.42)" /></g></g></g></g><g
                               id="g554"><g
                                 id="g556"><g
                                   id="g558"
                                   transform="scale(-1,-1)"><g
                                   id="g560" /><g
                                   id="g562"
                                   transform="matrix(-1,0,0,-1,-68.31,-295.42)"><g
                                   id="g564" /><g
                                   id="g566"
                                   transform="translate(235.91,345.13)"><text
                                   transform="matrix(1,0,0,-1,-68.31,-295.42)"
                                   style="font-variant:normal;font-weight:normal;font-size:17.21500015px;font-family:'Times New Roman';-inkscape-font-specification:TimesNewRomanPSMT;writing-mode:lr-tb;fill:#000000;fill-opacity:1;fill-rule:nonzero;stroke:none"
                                   id="text568"><tspan
                                   x="0"
                                   y="0"
                                   id="tspan570">5</tspan></text>
</g><g
                                   id="g572"
                                   transform="translate(-68.31,-295.42)" /></g></g></g></g><g
                               id="g574"
                               clip-path="url(#clipPath576)"><g
                                 id="g580"><path
                                   d="m 654.49664,350.39362 1.67017,0.52314 2.48447,0.81564 4.17607,1.33878 2.61718,0.81948 1.58407,0.51931 4.18034,1.33879 3.51332,1.09929 0.73187,0.23952 4.18596,1.33879 4.28316,1.33878 0.0767,0.0235 4.11947,1.31534 4.28869,1.33879 0.86957,0.26544 3.36804,1.07335 4.29556,1.33878 1.61411,0.49211 2.6626,0.84663 4.30348,1.33877 2.31166,0.70374 m -315.44255,-111.84987 0.0575,0.027 3.00903,1.33879 3.17359,1.33878 3.03764,1.21611 0.26825,0.12267 3.07793,1.3388 3.23763,1.33879 2.6939,1.06 0.62557,0.27874 3.15172,1.3388 3.30749,1.33879 2.19295,0.84677 1.13347,0.492 3.22964,1.33879 3.38178,1.33879 1.53284,0.58023 1.7947,0.75856 3.31072,1.33878 3.45984,1.33879 0.71248,0.26413 2.61114,1.07468 3.39453,1.33879 3.27204,1.23715 0.24337,0.10162 3.34072,1.3388 3.48057,1.33879 2.21306,0.81764 1.28365,0.52115 3.43061,1.33877 3.56861,1.33875 0.99486,0.35917 2.48039,0.97963 3.52186,1.33878 3.27547,1.19878 0.35101,0.14001 3.48311,1.33879 3.61441,1.33879 1.8292,0.65337 1.7673,0.68541 3.57791,1.33879 3.70806,1.33879 0.22445,0.0782 3.34036,1.26056 3.67363,1.33879 2.26374,0.79714 1.42561,0.54165 3.64497,1.33879 3.77008,1.33879 0.43706,0.15015 3.21533,1.18863 3.74289,1.33874 2.31951,0.80315 1.44159,0.53564 3.72044,1.33878 3.84128,1.33879 0.2744,0.0927 3.44604,1.24608 3.81989,1.33879 2.01179,0.68367 1.8048,0.6551 3.80259,1.33879 3.67034,1.25362 0.23385,0.0852 3.78878,1.33879 3.90313,1.33877 1.35198,0.45037 2.50745,0.88842 3.88987,1.33881 2.88039,0.96315 1.058,0.37564 3.87973,1.33878 3.99124,1.33874 0.34875,0.11376 3.54329,1.22502 3.98157,1.33879 1.75287,0.5735 2.21103,0.76529 3.97439,1.33879 3.0923,1.01392 0.93804,0.32487 3.96963,1.33879 4.07665,1.33879 0.29335,0.0939 3.68904,1.2449 4.0721,1.33879 1.51657,0.48593 2.52707,0.85285 4.06964,1.33879 2.68101,0.85985 1.41959,0.47894 4.06915,1.33879 3.78899,1.21581 0.36482,0.12297 4.07048,1.33876 4.17188,1.33877 0.67054,0.21004 3.43442,1.12875 4.17314,1.3388 m -471.00206,-168.68695 -0.49156,1.19596 -0.0433,0.14283 -0.40881,1.33874 -0.41359,1.33879 -0.41792,1.33879 -0.42158,1.33878 -0.42404,1.33879 -0.4248,1.33879 -0.42339,1.33879 -0.41932,1.33877 -0.41219,1.33881 -0.40132,1.33879 -0.38632,1.3388 -0.36666,1.33879 -0.34153,1.33877 -0.31066,1.33879 -0.27314,1.33879 -0.22866,1.33873 -0.17631,1.33879 -0.11554,1.33881 -0.0457,1.33878 0.034,1.33879 0.12425,1.33879 0.22579,1.33879 0.33952,1.33878 0.46605,1.33878 0.60644,1.3388 0.76143,1.3388 0.93181,1.33878 1.11882,1.33879 1.32311,1.33879 0.5236,0.4556 1.51271,0.88319 2.66022,1.33873 3.07022,1.33879 2.03458,0.77794 2.5986,0.56085 6.67911,1.26146 1.18911,0.0773 8.08861,0.46505 9.27772,-0.27757 1.97214,-0.18748 7.30561,-0.74704 3.94985,-0.59174 5.32787,-0.85835 2.52382,-0.48044 6.541,-1.33879 0.21289,-0.0472 5.60367,-1.29153 3.67406,-0.90927 1.87614,-0.42952 5.41782,-1.33879 1.98376,-0.52885 3.83091,-0.80994 5.44682,-1.22956 0.8306,-0.10922 8.44712,-1.18126 9.27773,-0.0239 7.79408,1.20515 1.48364,0.2007 3.74555,1.13808 4.97865,1.33879 0.55353,0.13374 2.98529,1.20505 3.68457,1.33879 2.60786,0.85698 0.99773,0.48175 3.03652,1.33879 3.33511,1.33879 1.90836,0.70113 1.26852,0.63765 2.89572,1.3388 3.15221,1.33879 1.96127,0.7681 1.11688,0.57069 2.82991,1.33878 3.05924,1.33879 2.27171,0.92208 0.81433,0.41671 2.80954,1.33879 3.01985,1.33878 2.63401,1.08839 0.49325,0.2504 2.81871,1.33881 3.015,1.33879 2.95067,1.22648 0.22438,0.11225 2.8481,1.33879 3.0337,1.33879 3.17154,1.31538 0.0477,0.0234 2.89186,1.3388 3.06905,1.33879 3.25402,1.33881 0.0151,0.006 2.93358,1.33293 3.11667,1.33879 3.22748,1.31181 m 37.70134,-169.99881 -0.59045,0.23706 -3.03084,1.10173 -3.5309,1.33878 -2.71599,1.07489 -0.74036,0.26392 -3.59408,1.33879 -3.43988,1.33879 -1.50341,0.61212 -1.99301,0.72666 -3.50804,1.33878 -3.35075,1.33879 -0.42591,0.17849 -3.11227,1.16031 -3.42466,1.33877 -2.74079,1.12448 -0.59137,0.21431 -3.51472,1.33881 -3.34456,1.33873 -1.82708,0.76973 -1.542,0.56906 -3.4438,1.33879 -3.26861,1.33879 -1.02333,0.44256 -2.38873,0.89622 -3.37889,1.33878 -3.19797,1.3388 -0.31213,0.13843 -3.1536,1.20036 -3.322,1.33879 -2.80203,1.19714 -0.39126,0.14165 -3.47909,1.33879 -3.27584,1.33879 -2.13154,0.92732 -1.13362,0.41146 -3.45824,1.33879 -3.24428,1.33879 -1.4416,0.63623 -1.94354,0.7025 -3.46096,1.33881 -3.23392,1.33879 -0.6393,0.28465 -2.95782,1.05414 -3.499,1.33877 -2.8209,1.16082 -0.55569,0.17798 -3.86993,1.33879 -3.59382,1.33879 -1.25828,0.50795 -2.74642,0.83082 -4.09324,1.33879 -2.43807,0.86418 -1.87669,0.47463 -4.88196,1.33879 -2.51907,0.74922 -2.97862,0.58956 -6.26589,1.33878 -0.0332,0.008 -9.27772,1.29362 -0.51021,0.0374 -8.76752,0.69244 -9.27772,0.32916 -9.27773,0.19324 -3.81723,0.12389 -5.46048,0.18997 -9.27772,0.67262 -3.5429,0.4762 -5.73485,0.82238 -2.18081,0.51641 -5.27872,1.33879 -1.81819,0.49405 -2.04164,0.84474 -3.00191,1.33879 -2.79838,1.33879 -1.43579,0.74097 -0.80783,0.59782 -1.66556,1.33878 -1.54193,1.33879 -1.42891,1.33879 -1.32646,1.33879 -1.23403,1.33879 -1.15141,1.3388 -0.12158,0.15217 -0.68639,1.18661 -0.72368,1.33873 -0.68028,1.33879 -0.64317,1.3388 -0.61182,1.33877 -0.58618,1.33879 -0.5658,1.33879 -0.55031,1.33881 -0.53915,1.33879 -0.53209,1.33878 -0.52878,1.33879 -0.5286,1.33878 -0.53117,1.3388 -0.53599,1.33877 -0.54276,1.3388 m 528.33858,-188.08118 -2.18091,0.65123 -4.38882,1.33878 -2.70801,0.84394 -1.65378,0.49484 -4.37866,1.33881 -3.24527,1.01401 -1.08344,0.32478 -4.36943,1.33875 -3.82486,1.19801 -0.46887,0.14073 -4.36122,1.33878 -4.26495,1.33879 -0.18268,0.05867 -4.16339,1.28012 -4.25655,1.33879 -0.85779,0.27611 -3.4517,1.06267 -4.24933,1.3388 -1.57669,0.50846 -2.69412,0.83034 -4.24335,1.33878 -2.34026,0.75602 -1.88952,0.58277 -4.23857,1.33878 -3.14963,1.01897 -1.03655,0.31982 -4.2353,1.33879 -4.00588,1.29746 -0.13391,0.04133 -4.23353,1.33879 -4.13005,1.33875 -0.78023,0.25931 -3.41353,1.07946 -4.12822,1.3388 -1.73596,0.57751 -2.40845,0.76128 -4.12814,1.33878 -2.74108,0.91224 -1.35069,0.42654 -4.12985,1.33879 -3.79718,1.26372 -0.23811,0.07507 -4.13363,1.33881 -4.02465,1.33878 -0.88134,0.30128 -3.20826,1.03751 -4.02843,1.33879 -2.04103,0.69725 -1.9879,0.64154 -4.03453,1.33879 -3.25528,1.11086 -0.70819,0.22792 -4.04316,1.33874 -3.92962,1.33877 -0.59677,0.20934 -3.42079,1.12947 -3.93854,1.33879 -1.9184,0.67166 -2.02804,0.66714 -3.95024,1.33877 -3.29944,1.15225 -0.56964,0.18654 -3.96515,1.33879 -3.84603,1.33879 -0.89689,0.32207 -3.02559,1.01671 -3.86145,1.3388 -2.39069,0.8555 -1.44658,0.4833 -3.88063,1.33878 -3.75787,1.33878 -0.19264,0.07091 -3.69733,1.26788 -3.77791,1.33875 -1.80249,0.66049 -1.99267,0.67829 -3.80222,1.33878 -3.48283,1.26877 -0.20765,0.07003 -3.83164,1.3388 -3.70078,1.33878 -1.53766,0.57635 -2.20254,0.76244 -3.7316,1.33879 -3.34358,1.24362 -0.27793,0.09517 -3.76845,1.33877 -3.63202,1.3388 -1.59933,0.61218 -2.06969,0.72661 -3.67083,1.33879 -3.53293,1.33879 -3.71694,1.33879 -3.57406,1.33874 -1.99098,0.77636 -1.58562,0.56242 -3.62348,1.33879 -3.47819,1.33879"
                                   style="fill:none;stroke:#ff0000;stroke-width:1.59404004;stroke-linecap:butt;stroke-linejoin:miter;stroke-miterlimit:10;stroke-dasharray:none;stroke-opacity:1"
                                   id="path582"
                                   inkscape:connector-curvature="0" /></g></g></g><g
                             id="g584"><g
                               id="g586"><g
                                 id="g588"
                                 transform="scale(-1,-1)"><g
                                   id="g590" /><g
                                   id="g592"
                                   transform="matrix(-1,0,0,-1,-68.31,-295.42)"><g
                                   id="g594" /><g
                                   id="g596"
                                   transform="translate(490.16,189.93)"><text
                                   transform="matrix(1,0,0,-1,-68.31,-295.42)"
                                   style="font-style:italic;font-variant:normal;font-size:20.66300011px;font-family:'Times New Roman';-inkscape-font-specification:TimesNewRomanPS-ItalicMT;writing-mode:lr-tb;fill:#000000;fill-opacity:1;fill-rule:nonzero;stroke:none"
                                   id="text598"><tspan
                                   x="0"
                                   y="0"
                                   id="tspan600">x</tspan></text>
</g><g
                                   id="g602"
                                   transform="translate(-68.31,-295.42)" /></g></g></g></g><g
                             id="g604"><g
                               id="g606"><g
                                 id="g608"
                                 transform="scale(-1,-1)"><g
                                   id="g610" /><g
                                   id="g612"
                                   transform="matrix(-1,0,0,-1,-68.31,-295.42)"><g
                                   id="g614" /><g
                                   id="g616"
                                   transform="translate(258.57,352.45)"><text
                                   transform="matrix(1,0,0,-1,-68.31,-295.42)"
                                   style="font-style:italic;font-variant:normal;font-size:20.66300011px;font-family:'Times New Roman';-inkscape-font-specification:TimesNewRomanPS-ItalicMT;writing-mode:lr-tb;fill:#000000;fill-opacity:1;fill-rule:nonzero;stroke:none"
                                   id="text618"><tspan
                                   x="0"
                                   y="0"
                                   id="tspan620">y</tspan></text>
</g><g
                                   id="g622"
                                   transform="translate(-68.31,-295.42)" /></g></g></g></g></g></g></g></g><g
                     id="g624"
                     transform="translate(-68.91,-296.02)" /></g></g></g><g
               id="g626" /><g
               id="g628" /></g></g></g></g></g></svg>